<?xml version="1.0" standalone="no"?>
<!DOCTYPE svg PUBLIC "-//W3C//DTD SVG 20010904//EN"
 "http://www.w3.org/TR/2001/REC-SVG-20010904/DTD/svg10.dtd">
<svg version="1.0" xmlns="http://www.w3.org/2000/svg"
 width="116.000000pt" height="116.000000pt" viewBox="0 0 116.000000 116.000000"
 preserveAspectRatio="xMidYMid meet">
<metadata>
Created by potrace 1.15, written by Peter Selinger 2001-2017
</metadata>
<g transform="translate(0.000000,116.000000) scale(0.100000,-0.100000)"
fill="#000000" stroke="none">
<path d="M426 1145 c-194 -54 -359 -220 -411 -415 -19 -71 -19 -229 0 -300 52
-197 218 -363 415 -415 71 -19 229 -19 300 0 197 52 363 218 415 415 19 71 19
229 0 300 -52 197 -218 363 -415 415 -68 18 -237 18 -304 0z m295 -95 c209
-64 349 -253 349 -470 0 -272 -218 -490 -490 -490 -321 0 -556 304 -475 615
70 266 355 426 616 345z"/>
<path d="M546 878 c-12 -17 -16 -49 -16 -135 l0 -113 -118 0 c-124 0 -142 -6
-142 -45 0 -39 18 -45 142 -45 l118 0 0 -115 c0 -102 2 -117 20 -135 25 -25
35 -25 60 0 18 18 20 33 20 135 l0 115 118 0 c124 0 142 6 142 45 0 39 -18 45
-141 45 l-117 0 -4 125 c-2 98 -6 128 -18 135 -25 16 -48 11 -64 -12z"/>
</g>
</svg>
