<?xml version="1.0" standalone="no"?>
<!DOCTYPE svg PUBLIC "-//W3C//DTD SVG 20010904//EN"
 "http://www.w3.org/TR/2001/REC-SVG-20010904/DTD/svg10.dtd">
<svg version="1.0" xmlns="http://www.w3.org/2000/svg"
 width="116.000000pt" height="116.000000pt" viewBox="0 0 116.000000 116.000000"
 preserveAspectRatio="xMidYMid meet">
<metadata>
Created by potrace 1.15, written by Peter Selinger 2001-2017
</metadata>
<g transform="translate(0.000000,116.000000) scale(0.100000,-0.100000)"
fill="#000000" stroke="none">
<path d="M483 1135 c-55 -34 -83 -91 -83 -173 l0 -62 -109 0 c-172 0 -146 48
-225 -423 -37 -223 -66 -420 -64 -439 l3 -33 575 0 575 0 3 30 c3 29 -120 804
-133 837 -9 23 -36 28 -156 28 l-107 0 -4 73 c-2 58 -9 82 -28 110 -54 78
-164 102 -247 52z m153 -88 c23 -20 28 -34 32 -85 l4 -62 -91 0 -91 0 0 56 c0
48 4 59 29 85 37 36 79 38 117 6z m-236 -372 c0 -113 2 -125 19 -135 27 -14
37 -13 55 6 13 12 16 40 16 135 l0 119 90 0 90 0 0 -125 c0 -113 2 -125 19
-135 21 -10 51 -4 63 14 4 6 8 64 8 129 l0 117 93 0 92 0 58 -347 c31 -192 57
-351 57 -355 0 -5 -216 -8 -480 -8 -377 0 -480 3 -480 13 0 6 25 166 56 355
l57 342 94 0 93 0 0 -125z"/>
</g>
</svg>
