<?xml version="1.0" standalone="no"?>
<!DOCTYPE svg PUBLIC "-//W3C//DTD SVG 20010904//EN"
 "http://www.w3.org/TR/2001/REC-SVG-20010904/DTD/svg10.dtd">
<svg version="1.0" xmlns="http://www.w3.org/2000/svg"
 width="90.000000pt" height="116.000000pt" viewBox="0 0 90.000000 116.000000"
 preserveAspectRatio="xMidYMid meet">
<metadata>
Created by potrace 1.15, written by Peter Selinger 2001-2017
</metadata>
<g transform="translate(0.000000,116.000000) scale(0.100000,-0.100000)"
fill="#000000" stroke="none">
<path d="M173 1130 c-72 -36 -116 -83 -151 -158 -21 -48 -24 -64 -20 -140 5
-103 26 -152 95 -218 83 -79 206 -105 324 -67 76 24 168 116 192 192 38 120
12 242 -70 325 -70 71 -112 89 -218 94 -85 3 -94 2 -152 -28z m208 -70 c91
-25 167 -139 155 -234 -12 -103 -99 -190 -202 -202 -66 -8 -142 24 -189 79
-145 169 19 417 236 357z"/>
<path d="M705 731 c-17 -4 -42 -15 -57 -25 -32 -21 -68 -91 -68 -132 1 -40 34
-110 59 -124 27 -14 27 -34 -1 -73 -53 -79 -148 -158 -148 -123 0 23 -23 26
-184 26 -105 0 -156 -4 -164 -12 -17 -17 -17 -239 0 -256 8 -8 61 -12 175 -12
185 0 183 -1 183 87 0 47 1 49 47 73 66 35 153 124 189 195 22 44 37 61 58 66
62 17 106 82 106 157 0 101 -97 177 -195 153z m-305 -591 l0 -50 -90 0 -90 0
0 50 0 50 90 0 90 0 0 -50z"/>
</g>
</svg>
