<?xml version="1.0" standalone="no"?>
<!DOCTYPE svg PUBLIC "-//W3C//DTD SVG 20010904//EN"
 "http://www.w3.org/TR/2001/REC-SVG-20010904/DTD/svg10.dtd">
<svg version="1.0" xmlns="http://www.w3.org/2000/svg"
 width="116.000000pt" height="116.000000pt" viewBox="0 0 116.000000 116.000000"
 preserveAspectRatio="xMidYMid meet">
<metadata>
Created by potrace 1.15, written by Peter Selinger 2001-2017
</metadata>
<g transform="translate(0.000000,116.000000) scale(0.100000,-0.100000)"
fill="#000000" stroke="none">
<path d="M540 1141 c-6 -12 -10 -111 -10 -251 0 -127 -3 -230 -7 -228 -5 2
-112 56 -240 120 -253 128 -275 134 -281 70 l-3 -31 237 -119 238 -119 -235
-119 c-227 -115 -234 -120 -237 -151 -2 -24 2 -34 19 -44 20 -10 50 2 266 110
l243 121 0 -231 c0 -140 4 -238 10 -250 6 -11 21 -19 35 -19 14 0 151 63 306
140 l280 141 -3 30 c-3 29 -14 37 -238 152 l-234 121 234 115 c229 113 235
117 238 148 l3 32 -280 141 c-155 77 -292 140 -306 140 -14 0 -29 -8 -35 -19z
m460 -291 c0 -3 -83 -47 -185 -98 l-185 -92 0 190 0 190 185 -92 c102 -51 185
-95 185 -98z m0 -540 c0 -3 -83 -47 -185 -98 l-185 -92 0 190 0 190 185 -92
c102 -51 185 -95 185 -98z"/>
</g>
</svg>
