<?xml version="1.0" standalone="no"?>
<!DOCTYPE svg PUBLIC "-//W3C//DTD SVG 20010904//EN"
 "http://www.w3.org/TR/2001/REC-SVG-20010904/DTD/svg10.dtd">
<svg version="1.0" xmlns="http://www.w3.org/2000/svg"
 width="62.000000pt" height="116.000000pt" viewBox="0 0 62.000000 116.000000"
 preserveAspectRatio="xMidYMid meet">
<metadata>
Created by potrace 1.15, written by Peter Selinger 2001-2017
</metadata>
<g transform="translate(0.000000,116.000000) scale(0.100000,-0.100000)"
fill="#000000" stroke="none">
<path d="M5 1148 c-3 -7 -4 -267 -3 -578 l3 -565 29 -3 c26 -3 44 11 153 120
l123 123 123 -123 c109 -109 127 -123 153 -120 l29 3 0 575 0 575 -303 3
c-237 2 -304 0 -307 -10z m525 -535 l0 -458 -103 103 c-60 60 -110 102 -122
102 -12 0 -58 -41 -117 -102 l-97 -103 -1 458 0 457 220 0 220 0 0 -457z"/>
</g>
</svg>
