<?xml version="1.0" standalone="no"?>
<!DOCTYPE svg PUBLIC "-//W3C//DTD SVG 20010904//EN"
 "http://www.w3.org/TR/2001/REC-SVG-20010904/DTD/svg10.dtd">
<svg version="1.0" xmlns="http://www.w3.org/2000/svg"
 width="116.000000pt" height="98.000000pt" viewBox="0 0 116.000000 98.000000"
 preserveAspectRatio="xMidYMid meet">
<metadata>
Created by potrace 1.15, written by Peter Selinger 2001-2017
</metadata>
<g transform="translate(0.000000,98.000000) scale(0.100000,-0.100000)"
fill="#000000" stroke="none">
<path d="M362 968 c-7 -7 -12 -40 -12 -80 l0 -68 -164 0 c-126 0 -166 -3 -175
-14 -8 -9 -10 -125 -9 -407 l3 -394 575 0 575 0 3 394 c1 282 -1 398 -9 407
-9 11 -49 14 -175 14 l-164 0 0 64 c0 104 18 96 -224 96 -152 0 -215 -3 -224
-12z m358 -113 l0 -35 -140 0 -140 0 0 35 0 35 140 0 140 0 0 -35z m350 -265
l0 -140 -130 0 -130 0 0 33 c0 38 -15 57 -45 57 -30 0 -45 -19 -45 -57 l0 -33
-140 0 -140 0 0 33 c0 38 -15 57 -45 57 -30 0 -45 -19 -45 -57 l0 -33 -130 0
-130 0 0 140 0 140 490 0 490 0 0 -140z m-720 -257 c0 -33 9 -47 33 -56 32
-12 57 10 57 48 l0 35 140 0 140 0 0 -27 c0 -39 14 -55 45 -55 31 0 45 16 45
55 l0 27 130 0 130 0 0 -135 0 -135 -490 0 -490 0 0 135 0 135 130 0 130 0 0
-27z"/>
</g>
</svg>
