<?xml version="1.0" standalone="no"?>
<!DOCTYPE svg PUBLIC "-//W3C//DTD SVG 20010904//EN"
 "http://www.w3.org/TR/2001/REC-SVG-20010904/DTD/svg10.dtd">
<svg version="1.0" xmlns="http://www.w3.org/2000/svg"
 width="116.000000pt" height="108.000000pt" viewBox="0 0 116.000000 108.000000"
 preserveAspectRatio="xMidYMid meet">
<metadata>
Created by potrace 1.15, written by Peter Selinger 2001-2017
</metadata>
<g transform="translate(0.000000,108.000000) scale(0.100000,-0.100000)"
fill="#000000" stroke="none">
<path d="M257 1073 c-4 -3 -7 -19 -7 -35 l0 -28 -114 0 c-84 0 -117 -4 -125
-14 -8 -9 -10 -149 -9 -502 l3 -489 575 0 575 0 3 489 c1 353 -1 493 -9 502
-8 10 -41 14 -120 14 -101 0 -109 1 -109 19 0 36 -12 51 -39 51 -33 0 -51 -17
-51 -47 l0 -23 -245 0 -245 0 0 23 c0 13 -5 28 -12 35 -13 13 -60 16 -71 5z
m-7 -178 c0 -53 76 -57 87 -4 l6 29 243 0 244 0 0 -25 c0 -32 34 -51 66 -36
16 7 24 19 24 36 0 24 1 25 75 25 l75 0 0 -50 0 -50 -490 0 -490 0 0 50 0 50
80 0 c78 0 80 -1 80 -25z m820 -485 l0 -320 -490 0 -490 0 0 320 0 320 490 0
490 0 0 -320z"/>
<path d="M256 534 c-19 -18 -21 -45 -4 -62 9 -9 97 -12 334 -12 284 0 323 2
328 16 11 29 6 53 -13 64 -12 6 -134 10 -325 10 -264 0 -307 -2 -320 -16z"/>
<path d="M258 339 c-21 -12 -24 -49 -6 -67 8 -8 64 -12 185 -12 164 0 173 1
183 21 9 16 8 26 -5 45 -15 24 -17 24 -178 24 -91 0 -170 -5 -179 -11z"/>
</g>
</svg>
