<?xml version="1.0" standalone="no"?>
<!DOCTYPE svg PUBLIC "-//W3C//DTD SVG 20010904//EN"
 "http://www.w3.org/TR/2001/REC-SVG-20010904/DTD/svg10.dtd">
<svg version="1.0" xmlns="http://www.w3.org/2000/svg"
 width="116.000000pt" height="116.000000pt" viewBox="0 0 116.000000 116.000000"
 preserveAspectRatio="xMidYMid meet">
<metadata>
Created by potrace 1.15, written by Peter Selinger 2001-2017
</metadata>
<g transform="translate(0.000000,116.000000) scale(0.100000,-0.100000)"
fill="#000000" stroke="none">
<path d="M7 1153 c-4 -3 -7 -18 -7 -32 0 -20 54 -80 257 -283 l258 -258 -258
-258 c-233 -233 -258 -262 -255 -288 2 -24 8 -30 32 -32 26 -3 55 22 288 255
l258 258 258 -258 c233 -233 262 -258 288 -255 24 2 30 8 32 32 3 26 -22 55
-255 288 l-258 258 258 258 c233 233 258 262 255 288 -2 24 -8 30 -32 32 -26
3 -55 -22 -288 -255 l-258 -258 -258 258 c-203 203 -263 257 -283 257 -14 0
-29 -3 -32 -7z"/>
</g>
</svg>
