<?xml version="1.0" standalone="no"?>
<!DOCTYPE svg PUBLIC "-//W3C//DTD SVG 20010904//EN"
 "http://www.w3.org/TR/2001/REC-SVG-20010904/DTD/svg10.dtd">
<svg version="1.0" xmlns="http://www.w3.org/2000/svg"
 width="116.000000pt" height="116.000000pt" viewBox="0 0 116.000000 116.000000"
 preserveAspectRatio="xMidYMid meet">
<metadata>
Created by potrace 1.15, written by Peter Selinger 2001-2017
</metadata>
<g transform="translate(0.000000,116.000000) scale(0.100000,-0.100000)"
fill="#000000" stroke="none">
<path d="M426 1145 c-194 -54 -359 -220 -411 -415 -19 -71 -19 -229 0 -300 52
-197 218 -363 415 -415 71 -19 229 -19 300 0 197 52 363 218 415 415 19 71 19
229 0 300 -52 197 -218 363 -415 415 -68 18 -237 18 -304 0z m326 -104 c123
-47 240 -164 289 -289 33 -83 33 -261 0 -344 -49 -125 -164 -240 -289 -289
-83 -33 -261 -33 -344 0 -125 49 -242 166 -288 289 -27 71 -37 197 -21 274 36
171 181 325 352 373 77 21 226 14 301 -14z"/>
<path d="M362 808 c-28 -28 -13 -60 68 -142 l80 -82 -80 -79 c-81 -81 -97
-114 -68 -143 25 -25 53 -10 134 70 l84 82 84 -82 c81 -80 109 -95 134 -70 29
29 13 62 -68 143 l-80 79 80 82 c81 82 96 114 68 142 -25 25 -53 10 -134 -70
l-84 -82 -84 82 c-81 80 -109 95 -134 70z"/>
</g>
</svg>
