<?xml version="1.0" standalone="no"?>
<!DOCTYPE svg PUBLIC "-//W3C//DTD SVG 20010904//EN"
 "http://www.w3.org/TR/2001/REC-SVG-20010904/DTD/svg10.dtd">
<svg version="1.0" xmlns="http://www.w3.org/2000/svg"
 width="106.000000pt" height="116.000000pt" viewBox="0 0 106.000000 116.000000"
 preserveAspectRatio="xMidYMid meet">
<metadata>
Created by potrace 1.15, written by Peter Selinger 2001-2017
</metadata>
<g transform="translate(0.000000,116.000000) scale(0.100000,-0.100000)"
fill="#000000" stroke="none">
<path d="M670 1140 c-63 -30 -601 -565 -638 -635 -21 -40 -26 -68 -30 -140 -5
-118 18 -184 91 -259 75 -76 131 -100 242 -104 146 -6 178 11 352 181 142 139
160 166 131 195 -27 27 -54 9 -179 -113 -145 -143 -198 -175 -289 -175 -187 0
-317 202 -235 366 32 64 542 576 598 599 64 27 149 13 201 -33 27 -24 56 -91
56 -132 0 -70 -31 -109 -301 -377 -222 -220 -270 -262 -300 -268 -47 -9 -93
14 -115 57 -29 56 -15 82 120 218 68 69 126 133 129 143 7 20 -24 57 -48 57
-25 0 -272 -250 -290 -292 -30 -74 -10 -173 46 -225 57 -52 152 -67 221 -35
53 24 582 552 608 607 28 57 28 173 0 230 -25 52 -80 108 -129 132 -56 27
-184 29 -241 3z"/>
</g>
</svg>
