<?xml version="1.0" standalone="no"?>
<!DOCTYPE svg PUBLIC "-//W3C//DTD SVG 20010904//EN"
 "http://www.w3.org/TR/2001/REC-SVG-20010904/DTD/svg10.dtd">
<svg version="1.0" xmlns="http://www.w3.org/2000/svg"
 width="116.000000pt" height="116.000000pt" viewBox="0 0 116.000000 116.000000"
 preserveAspectRatio="xMidYMid meet">
<metadata>
Created by potrace 1.15, written by Peter Selinger 2001-2017
</metadata>
<g transform="translate(0.000000,116.000000) scale(0.100000,-0.100000)"
fill="#000000" stroke="none">
<path d="M101 1138 c-64 -31 -101 -94 -101 -170 0 -66 24 -124 64 -156 l25
-19 -20 -62 c-44 -142 -18 -322 65 -446 l34 -52 -84 -84 c-73 -73 -84 -88 -82
-114 3 -25 8 -30 33 -33 26 -2 41 9 114 82 l84 84 56 -36 c173 -111 418 -109
585 3 l51 34 86 -85 c74 -73 90 -85 115 -82 24 2 30 8 32 32 3 25 -9 41 -82
115 l-85 86 38 56 c20 31 48 88 60 127 20 61 23 86 19 179 -3 63 -11 126 -21
152 -16 44 -15 44 9 64 79 61 86 210 15 291 -68 78 -234 73 -299 -9 -20 -25
-20 -25 -63 -8 -62 24 -276 24 -338 0 -43 -17 -43 -17 -63 8 -51 65 -164 84
-247 43z m152 -88 l26 -20 -76 -76 -76 -76 -18 23 c-11 14 -19 41 -19 63 0 30
7 45 34 72 40 40 89 46 129 14z m767 3 c49 -29 63 -88 35 -143 -9 -17 -17 -30
-20 -30 -2 0 -38 34 -79 75 l-75 75 26 20 c31 24 75 26 113 3z m-358 -44 c140
-29 255 -119 317 -249 35 -72 36 -79 36 -185 0 -103 -2 -114 -32 -177 -42 -88
-133 -179 -221 -221 -63 -30 -74 -32 -182 -32 -109 0 -119 2 -183 32 -91 43
-177 129 -220 220 -30 64 -32 75 -32 178 0 103 2 114 32 178 36 77 116 166
183 205 51 30 156 61 212 61 20 1 61 -4 90 -10z"/>
<path d="M550 860 c-18 -18 -20 -33 -20 -155 0 -175 0 -175 136 -175 102 0
134 9 134 40 0 45 -8 50 -91 50 l-79 0 0 110 c0 97 -2 112 -20 130 -11 11 -24
20 -30 20 -5 0 -19 -9 -30 -20z"/>
</g>
</svg>
