<?xml version="1.0" standalone="no"?>
<!DOCTYPE svg PUBLIC "-//W3C//DTD SVG 20010904//EN"
 "http://www.w3.org/TR/2001/REC-SVG-20010904/DTD/svg10.dtd">
<svg version="1.0" xmlns="http://www.w3.org/2000/svg"
 width="116.000000pt" height="82.000000pt" viewBox="0 0 116.000000 82.000000"
 preserveAspectRatio="xMidYMid meet">
<metadata>
Created by potrace 1.15, written by Peter Selinger 2001-2017
</metadata>
<g transform="translate(0.000000,82.000000) scale(0.100000,-0.100000)"
fill="#000000" stroke="none">
<path d="M623 806 c-106 -34 -194 -113 -244 -219 -16 -34 -29 -68 -29 -75 0
-9 -7 -11 -22 -6 -38 12 -131 7 -170 -9 -55 -23 -113 -82 -138 -139 -18 -41
-21 -66 -18 -123 4 -91 40 -155 112 -200 l49 -30 361 0 361 0 60 32 c77 40
147 112 182 188 26 55 28 70 28 180 0 109 -2 125 -27 178 -37 80 -117 160
-197 199 -58 29 -75 33 -165 35 -65 2 -116 -2 -143 -11z m263 -106 c70 -34
138 -108 164 -177 18 -47 21 -73 18 -138 -7 -122 -57 -203 -160 -261 l-53 -29
-325 -3 -326 -3 -34 23 c-84 57 -104 146 -51 229 48 76 136 100 214 59 67 -36
90 -25 101 50 19 121 102 223 216 264 64 23 172 16 236 -14z"/>
</g>
</svg>
