<?xml version="1.0" standalone="no"?>
<!DOCTYPE svg PUBLIC "-//W3C//DTD SVG 20010904//EN"
 "http://www.w3.org/TR/2001/REC-SVG-20010904/DTD/svg10.dtd">
<svg version="1.0" xmlns="http://www.w3.org/2000/svg"
 width="116.000000pt" height="116.000000pt" viewBox="0 0 116.000000 116.000000"
 preserveAspectRatio="xMidYMid meet">
<metadata>
Created by potrace 1.15, written by Peter Selinger 2001-2017
</metadata>
<g transform="translate(0.000000,116.000000) scale(0.100000,-0.100000)"
fill="#000000" stroke="none">
<path d="M426 1145 c-97 -27 -178 -75 -257 -154 -119 -120 -169 -239 -169
-410 0 -173 48 -289 170 -412 119 -120 238 -169 410 -169 172 0 291 49 411
169 120 120 169 239 169 413 0 195 -93 381 -158 316 -18 -18 -15 -41 12 -89
62 -112 73 -281 27 -401 -48 -124 -166 -242 -289 -288 -71 -27 -197 -37 -274
-21 -129 27 -274 135 -331 246 -96 190 -71 406 64 559 149 169 396 214 601
110 42 -21 55 -24 74 -15 38 17 31 55 -13 86 -70 47 -181 75 -296 74 -56 0
-124 -7 -151 -14z"/>
<path d="M724 739 l-226 -271 -82 81 c-80 80 -109 94 -134 69 -30 -30 -13 -61
91 -165 68 -67 111 -103 125 -103 26 0 23 -4 301 329 147 176 221 272 221 287
0 23 -25 44 -54 44 -9 0 -117 -122 -242 -271z"/>
</g>
</svg>
