<?xml version="1.0" standalone="no"?>
<!DOCTYPE svg PUBLIC "-//W3C//DTD SVG 20010904//EN"
 "http://www.w3.org/TR/2001/REC-SVG-20010904/DTD/svg10.dtd">
<svg version="1.0" xmlns="http://www.w3.org/2000/svg"
 width="116.000000pt" height="80.000000pt" viewBox="0 0 116.000000 80.000000"
 preserveAspectRatio="xMidYMid meet">
<metadata>
Created by potrace 1.15, written by Peter Selinger 2001-2017
</metadata>
<g transform="translate(0.000000,80.000000) scale(0.100000,-0.100000)"
fill="#000000" stroke="none">
<path d="M5 788 c-3 -7 -4 -186 -3 -398 l3 -385 575 0 575 0 0 395 0 395 -573
3 c-453 2 -574 0 -577 -10z m1065 -163 l0 -85 -490 0 -490 0 0 85 0 85 490 0
490 0 0 -85z m0 -355 l0 -180 -490 0 -490 0 0 180 0 180 490 0 490 0 0 -180z"/>
<path d="M212 368 c-15 -15 -15 -51 0 -66 16 -16 180 -16 196 0 15 15 15 51 0
66 -7 7 -44 12 -98 12 -54 0 -91 -5 -98 -12z"/>
</g>
</svg>
