<?xml version="1.0" standalone="no"?>
<!DOCTYPE svg PUBLIC "-//W3C//DTD SVG 20010904//EN"
 "http://www.w3.org/TR/2001/REC-SVG-20010904/DTD/svg10.dtd">
<svg version="1.0" xmlns="http://www.w3.org/2000/svg"
 width="88.000000pt" height="116.000000pt" viewBox="0 0 88.000000 116.000000"
 preserveAspectRatio="xMidYMid meet">
<metadata>
Created by potrace 1.15, written by Peter Selinger 2001-2017
</metadata>
<g transform="translate(0.000000,116.000000) scale(0.100000,-0.100000)"
fill="#000000" stroke="none">
<path d="M130 1140 c-9 -17 9 -68 123 -337 l134 -317 -29 -70 c-16 -39 -34
-81 -39 -94 l-9 -23 -28 21 c-67 50 -162 45 -226 -10 -46 -41 -59 -78 -54
-150 5 -64 23 -98 71 -134 32 -24 121 -33 171 -16 43 14 94 72 102 118 4 18
26 79 50 135 l43 102 16 -38 c8 -21 26 -62 39 -91 13 -30 31 -79 40 -109 27
-94 96 -136 202 -124 86 9 144 80 144 177 0 140 -140 222 -263 156 -26 -14
-49 -26 -51 -26 -2 0 -20 40 -40 88 l-37 88 130 309 c72 171 131 317 131 325
0 46 -70 56 -90 13 -13 -30 -196 -462 -212 -503 -8 -22 -23 7 -126 250 -116
273 -117 275 -149 278 -24 2 -34 -2 -43 -18z m115 -913 c24 -34 19 -81 -11
-111 -70 -70 -180 17 -133 105 26 50 111 53 144 6z m516 14 c41 -41 40 -90 -2
-125 -33 -28 -59 -32 -92 -14 -34 17 -46 39 -47 80 0 28 7 42 31 62 40 34 74
33 110 -3z"/>
</g>
</svg>
