<?xml version="1.0" standalone="no"?>
<!DOCTYPE svg PUBLIC "-//W3C//DTD SVG 20010904//EN"
 "http://www.w3.org/TR/2001/REC-SVG-20010904/DTD/svg10.dtd">
<svg version="1.0" xmlns="http://www.w3.org/2000/svg"
 width="76.000000pt" height="116.000000pt" viewBox="0 0 76.000000 116.000000"
 preserveAspectRatio="xMidYMid meet">
<metadata>
Created by potrace 1.15, written by Peter Selinger 2001-2017
</metadata>
<g transform="translate(0.000000,116.000000) scale(0.100000,-0.100000)"
fill="#000000" stroke="none">
<path d="M80 1138 c-53 -36 -80 -98 -80 -182 0 -86 23 -141 74 -182 l36 -29 0
-360 c0 -268 3 -364 12 -373 15 -15 61 -15 76 0 9 9 12 107 12 378 l1 365 32
20 c49 31 77 95 77 181 0 124 -62 204 -160 204 -32 0 -57 -7 -80 -22z m123
-110 c25 -33 27 -100 4 -144 -31 -61 -75 -52 -103 21 -14 38 -15 52 -5 85 22
74 66 90 104 38z"/>
<path d="M446 1145 c-12 -32 -7 -370 6 -383 7 -7 31 -12 55 -12 l43 0 0 -363
c0 -269 3 -366 12 -375 15 -15 61 -15 76 0 9 9 12 106 12 374 l0 363 53 3 52
3 0 200 0 200 -28 3 c-53 6 -57 -6 -57 -169 0 -93 -4 -149 -10 -149 -6 0 -10
56 -10 148 0 159 -4 172 -50 172 -46 0 -50 -13 -50 -172 0 -203 -19 -195 -22
10 l-3 157 -36 3 c-26 2 -38 -1 -43 -13z"/>
</g>
</svg>
