<?xml version="1.0" standalone="no"?>
<!DOCTYPE svg PUBLIC "-//W3C//DTD SVG 20010904//EN"
 "http://www.w3.org/TR/2001/REC-SVG-20010904/DTD/svg10.dtd">
<svg version="1.0" xmlns="http://www.w3.org/2000/svg"
 width="122.000000pt" height="116.000000pt" viewBox="0 0 122.000000 116.000000"
 preserveAspectRatio="xMidYMid meet">
<metadata>
Created by potrace 1.15, written by Peter Selinger 2001-2017
</metadata>
<g transform="translate(0.000000,116.000000) scale(0.100000,-0.100000)"
fill="#000000" stroke="none">
<path d="M572 1148 c-9 -9 -12 -118 -12 -427 l0 -416 -248 248 c-244 244 -270
265 -300 235 -35 -35 -19 -56 281 -356 227 -227 298 -292 317 -292 20 0 90 65
318 293 299 299 315 320 280 355 -30 30 -56 9 -300 -235 l-248 -248 0 408 c0
262 -4 415 -10 428 -12 22 -59 26 -78 7z"/>
<path d="M11 76 c-7 -8 -11 -27 -9 -43 l3 -28 605 0 605 0 3 28 c7 59 33 57
-608 57 -499 0 -589 -2 -599 -14z"/>
</g>
</svg>
