<?xml version="1.0" standalone="no"?>
<!DOCTYPE svg PUBLIC "-//W3C//DTD SVG 20010904//EN"
 "http://www.w3.org/TR/2001/REC-SVG-20010904/DTD/svg10.dtd">
<svg version="1.0" xmlns="http://www.w3.org/2000/svg"
 width="118.000000pt" height="116.000000pt" viewBox="0 0 118.000000 116.000000"
 preserveAspectRatio="xMidYMid meet">
<metadata>
Created by potrace 1.15, written by Peter Selinger 2001-2017
</metadata>
<g transform="translate(0.000000,116.000000) scale(0.100000,-0.100000)"
fill="#000000" stroke="none">
<path d="M342 817 l-342 -343 0 -126 c0 -156 -5 -151 151 -146 l109 3 345 345
c269 269 345 351 345 370 0 37 -202 240 -239 240 -21 0 -89 -63 -369 -343z
m466 76 l-32 -33 -63 62 -63 62 32 33 32 33 63 -62 63 -62 -32 -33z m-163 -43
l60 -60 -245 -245 -245 -245 -62 0 -63 0 0 62 0 63 242 242 c134 134 245 243
248 243 3 0 32 -27 65 -60z"/>
<path d="M16 77 c-12 -9 -17 -23 -14 -42 l3 -30 585 0 585 0 3 30 c7 56 19 55
-588 55 -440 0 -560 -3 -574 -13z"/>
</g>
</svg>
