<?xml version="1.0" standalone="no"?>
<!DOCTYPE svg PUBLIC "-//W3C//DTD SVG 20010904//EN"
 "http://www.w3.org/TR/2001/REC-SVG-20010904/DTD/svg10.dtd">
<svg version="1.0" xmlns="http://www.w3.org/2000/svg"
 width="116.000000pt" height="100.000000pt" viewBox="0 0 116.000000 100.000000"
 preserveAspectRatio="xMidYMid meet">
<metadata>
Created by potrace 1.15, written by Peter Selinger 2001-2017
</metadata>
<g transform="translate(0.000000,100.000000) scale(0.100000,-0.100000)"
fill="#000000" stroke="none">
<path d="M5 988 c-3 -7 -4 -231 -3 -498 l3 -485 575 0 575 0 0 495 0 495 -573
3 c-453 2 -574 0 -577 -10z m1075 -136 l0 -58 -187 -129 c-103 -72 -215 -149
-249 -173 l-61 -43 -247 171 -246 171 0 60 0 59 495 0 495 0 0 -58z m-2 -550
l-3 -129 -134 160 c-102 121 -131 162 -120 168 8 5 68 46 134 93 l120 84 3
-123 c1 -68 1 -182 0 -253z m-855 282 c67 -47 123 -89 125 -93 2 -5 -208 -264
-249 -305 -5 -6 -9 85 -9 237 0 136 2 247 5 247 3 0 60 -39 128 -86z m359
-234 c14 0 50 18 81 40 30 22 60 40 65 40 5 0 73 -76 151 -170 l141 -170 -435
0 c-364 0 -435 2 -428 14 4 7 69 85 143 173 l135 161 61 -44 c34 -24 73 -44
86 -44z"/>
</g>
</svg>
