<?xml version="1.0" standalone="no"?>
<!DOCTYPE svg PUBLIC "-//W3C//DTD SVG 20010904//EN"
 "http://www.w3.org/TR/2001/REC-SVG-20010904/DTD/svg10.dtd">
<svg version="1.0" xmlns="http://www.w3.org/2000/svg"
 width="116.000000pt" height="116.000000pt" viewBox="0 0 116.000000 116.000000"
 preserveAspectRatio="xMidYMid meet">
<metadata>
Created by potrace 1.15, written by Peter Selinger 2001-2017
</metadata>
<g transform="translate(0.000000,116.000000) scale(0.100000,-0.100000)"
fill="#000000" stroke="none">
<path d="M544 1148 c-5 -7 -48 -85 -95 -173 l-87 -160 -179 -55 -178 -56 -3
-31 c-3 -28 10 -46 107 -152 61 -67 111 -129 111 -139 0 -9 -20 -89 -44 -177
-27 -100 -41 -167 -36 -180 13 -37 55 -29 251 49 l189 76 187 -75 c286 -115
285 -115 218 135 l-48 180 71 77 c39 43 89 96 111 118 31 30 41 47 41 71 0 37
3 35 -232 113 l-127 42 -93 172 c-88 162 -95 172 -125 175 -18 2 -35 -2 -39
-10z m111 -269 c39 -72 75 -135 82 -140 6 -6 75 -31 153 -57 l142 -48 -96
-101 c-66 -69 -96 -108 -96 -124 0 -13 16 -80 34 -149 19 -69 33 -127 30 -129
-2 -2 -76 24 -164 59 l-160 64 -166 -67 c-93 -37 -163 -60 -161 -53 15 37 69
254 69 273 0 15 -34 61 -97 129 l-98 107 142 43 c78 23 148 48 156 54 9 7 45
70 83 141 37 71 69 129 72 129 3 0 37 -59 75 -131z"/>
</g>
</svg>
