<?xml version="1.0" standalone="no"?>
<!DOCTYPE svg PUBLIC "-//W3C//DTD SVG 20010904//EN"
 "http://www.w3.org/TR/2001/REC-SVG-20010904/DTD/svg10.dtd">
<svg version="1.0" xmlns="http://www.w3.org/2000/svg"
 width="116.000000pt" height="104.000000pt" viewBox="0 0 116.000000 104.000000"
 preserveAspectRatio="xMidYMid meet">
<metadata>
Created by potrace 1.15, written by Peter Selinger 2001-2017
</metadata>
<g transform="translate(0.000000,104.000000) scale(0.100000,-0.100000)"
fill="#000000" stroke="none">
<path d="M220 1031 c-81 -26 -146 -87 -187 -176 -39 -84 -45 -233 -14 -332 44
-142 125 -257 253 -358 94 -74 264 -165 310 -165 44 0 214 92 307 167 91 72
156 149 205 243 54 103 69 167 64 284 -3 91 -7 109 -36 169 -38 77 -102 138
-169 161 -96 33 -233 12 -326 -50 l-39 -26 -84 43 c-78 39 -91 43 -172 46 -48
1 -98 -1 -112 -6z"/>
</g>
</svg>
