<?xml version="1.0" standalone="no"?>
<!DOCTYPE svg PUBLIC "-//W3C//DTD SVG 20010904//EN"
 "http://www.w3.org/TR/2001/REC-SVG-20010904/DTD/svg10.dtd">
<svg version="1.0" xmlns="http://www.w3.org/2000/svg"
 width="116.000000pt" height="100.000000pt" viewBox="0 0 116.000000 100.000000"
 preserveAspectRatio="xMidYMid meet">
<metadata>
Created by potrace 1.15, written by Peter Selinger 2001-2017
</metadata>
<g transform="translate(0.000000,100.000000) scale(0.100000,-0.100000)"
fill="#000000" stroke="none">
<path d="M5 988 c-3 -7 -4 -231 -3 -498 l3 -485 575 0 575 0 0 435 0 435 -276
3 -276 2 -52 60 -52 60 -245 0 c-186 0 -246 -3 -249 -12z m501 -138 l57 -60
254 0 253 0 0 -350 0 -350 -490 0 -490 0 0 410 0 410 179 0 180 0 57 -60z"/>
</g>
</svg>
