<?xml version="1.0" standalone="no"?>
<!DOCTYPE svg PUBLIC "-//W3C//DTD SVG 20010904//EN"
 "http://www.w3.org/TR/2001/REC-SVG-20010904/DTD/svg10.dtd">
<svg version="1.0" xmlns="http://www.w3.org/2000/svg"
 width="58.000000pt" height="62.000000pt" viewBox="0 0 58.000000 62.000000"
 preserveAspectRatio="xMidYMid meet">
<metadata>
Created by potrace 1.15, written by Peter Selinger 2001-2017
</metadata>
<g transform="translate(0.000000,62.000000) scale(0.100000,-0.100000)"
fill="#000000" stroke="none">
<path d="M5 607 c-3 -7 -4 -145 -3 -307 l3 -295 29 -3 c25 -3 41 8 112 79 l84
84 0 -71 c0 -77 9 -94 51 -94 22 0 53 27 161 141 82 87 134 150 136 165 5 36
-258 314 -297 314 -42 0 -51 -17 -51 -94 l0 -71 -83 83 c-63 63 -89 82 -110
82 -15 0 -30 -6 -32 -13z m392 -374 l-77 -78 0 155 0 155 77 -78 78 -77 -78
-77z m-235 5 l-72 -73 0 145 0 145 72 -73 73 -72 -73 -72z"/>
</g>
</svg>
