<?xml version="1.0" standalone="no"?>
<!DOCTYPE svg PUBLIC "-//W3C//DTD SVG 20010904//EN"
 "http://www.w3.org/TR/2001/REC-SVG-20010904/DTD/svg10.dtd">
<svg version="1.0" xmlns="http://www.w3.org/2000/svg"
 width="116.000000pt" height="116.000000pt" viewBox="0 0 116.000000 116.000000"
 preserveAspectRatio="xMidYMid meet">
<metadata>
Created by potrace 1.15, written by Peter Selinger 2001-2017
</metadata>
<g transform="translate(0.000000,116.000000) scale(0.100000,-0.100000)"
fill="#000000" stroke="none">
<path d="M5 1148 c-3 -7 -4 -267 -3 -578 l3 -565 575 0 575 0 0 575 0 575
-573 3 c-453 2 -574 0 -577 -10z m1075 -404 l0 -326 -106 101 c-58 56 -113
101 -122 101 -10 0 -62 -30 -116 -66 l-99 -66 -71 71 c-40 40 -80 71 -91 71
-11 0 -98 -49 -193 -110 -95 -60 -177 -112 -183 -115 -5 -4 -9 121 -9 329 l0
336 495 0 495 0 0 -326z m-564 -265 l42 -42 -71 -47 c-40 -25 -145 -94 -235
-153 l-162 -106 0 78 0 79 183 115 c100 64 186 116 192 116 5 1 28 -18 51 -40z
m449 -82 l115 -108 0 -100 0 -99 -437 0 c-240 0 -433 3 -430 6 16 16 623 412
629 411 4 -1 59 -51 123 -110z"/>
<path d="M647 852 c-39 -43 -7 -122 48 -122 30 0 75 41 75 68 0 11 -9 31 -21
46 -25 32 -77 36 -102 8z"/>
</g>
</svg>
