<?xml version="1.0" standalone="no"?>
<!DOCTYPE svg PUBLIC "-//W3C//DTD SVG 20010904//EN"
 "http://www.w3.org/TR/2001/REC-SVG-20010904/DTD/svg10.dtd">
<svg version="1.0" xmlns="http://www.w3.org/2000/svg"
 width="116.000000pt" height="98.000000pt" viewBox="0 0 116.000000 98.000000"
 preserveAspectRatio="xMidYMid meet">
<metadata>
Created by potrace 1.15, written by Peter Selinger 2001-2017
</metadata>
<g transform="translate(0.000000,98.000000) scale(0.100000,-0.100000)"
fill="#000000" stroke="none">
<path d="M542 968 c-7 -7 -12 -40 -12 -85 l0 -73 -88 0 c-153 0 -253 -40 -342
-136 -23 -25 -54 -71 -68 -102 -24 -51 -27 -69 -27 -167 0 -102 2 -115 31
-175 39 -83 111 -155 194 -194 l65 -31 285 0 285 0 68 32 c82 39 152 108 193
189 27 55 29 67 29 174 0 104 -3 120 -27 172 -15 32 -48 80 -73 107 -89 95
-181 131 -336 131 l-98 0 -3 83 -3 82 -30 3 c-17 2 -36 -3 -43 -10z m350 -281
c62 -30 115 -83 150 -149 33 -63 33 -203 -1 -268 -32 -61 -86 -116 -146 -148
l-50 -27 -265 0 c-259 0 -266 1 -310 24 -105 54 -170 150 -178 261 -5 80 8
134 51 196 41 62 93 102 159 125 47 17 80 19 293 17 240 -3 240 -3 297 -31z"/>
<path d="M281 524 c-13 -10 -21 -26 -21 -45 0 -26 -3 -29 -30 -29 -39 0 -67
-38 -50 -69 8 -15 21 -21 45 -21 33 0 35 -2 35 -33 0 -38 15 -57 45 -57 30 0
45 19 45 57 0 31 2 33 33 33 39 0 57 15 57 47 0 25 -26 43 -64 43 -21 0 -25 5
-28 36 -4 44 -33 61 -67 38z"/>
<path d="M736 519 c-50 -39 -20 -119 44 -119 63 0 93 77 48 120 -28 26 -58 26
-92 -1z"/>
<path d="M865 385 c-28 -27 -31 -45 -14 -78 16 -30 28 -37 65 -37 60 0 88 77
42 120 -29 27 -64 25 -93 -5z"/>
</g>
</svg>
