<?xml version="1.0" standalone="no"?>
<!DOCTYPE svg PUBLIC "-//W3C//DTD SVG 20010904//EN"
 "http://www.w3.org/TR/2001/REC-SVG-20010904/DTD/svg10.dtd">
<svg version="1.0" xmlns="http://www.w3.org/2000/svg"
 width="116.000000pt" height="116.000000pt" viewBox="0 0 116.000000 116.000000"
 preserveAspectRatio="xMidYMid meet">
<metadata>
Created by potrace 1.15, written by Peter Selinger 2001-2017
</metadata>
<g transform="translate(0.000000,116.000000) scale(0.100000,-0.100000)"
fill="#000000" stroke="none">
<path d="M362 1148 c-7 -7 -12 -40 -12 -80 l0 -68 -164 0 c-179 0 -190 -4
-184 -57 3 -24 8 -28 41 -31 20 -2 37 -4 37 -5 1 -1 25 -200 54 -443 29 -243
56 -446 60 -453 10 -16 762 -16 772 0 4 7 31 210 60 453 29 243 53 442 54 443
0 1 17 3 38 5 32 3 37 7 40 31 6 53 -5 57 -184 57 l-164 0 0 68 c0 40 -5 73
-12 80 -17 17 -419 17 -436 0z m358 -113 l0 -35 -140 0 -140 0 0 35 0 35 140
0 140 0 0 -35z m218 -517 c-26 -216 -47 -401 -47 -410 -1 -17 -23 -18 -311
-18 -288 0 -310 1 -311 18 0 9 -21 194 -47 410 l-48 392 406 0 406 0 -48 -392z"/>
<path d="M412 768 c-17 -17 -17 -539 0 -556 15 -15 51 -15 66 0 9 9 12 84 12
278 0 279 -2 290 -45 290 -12 0 -26 -5 -33 -12z"/>
<path d="M682 768 c-9 -9 -12 -84 -12 -278 0 -279 2 -290 45 -290 43 0 45 11
45 290 0 279 -2 290 -45 290 -12 0 -26 -5 -33 -12z"/>
</g>
</svg>
