<?xml version="1.0" standalone="no"?>
<!DOCTYPE svg PUBLIC "-//W3C//DTD SVG 20010904//EN"
 "http://www.w3.org/TR/2001/REC-SVG-20010904/DTD/svg10.dtd">
<svg version="1.0" xmlns="http://www.w3.org/2000/svg"
 width="256.000000pt" height="256.000000pt" viewBox="0 0 256.000000 256.000000"
 preserveAspectRatio="xMidYMid meet">
<metadata>
Created by potrace 1.15, written by Peter Selinger 2001-2017
</metadata>
<g transform="translate(0.000000,256.000000) scale(0.100000,-0.100000)"
fill="#000000" stroke="none">
<path d="M120 2344 c-79 -34 -120 -101 -120 -196 0 -78 27 -129 88 -173 l44
-30 1121 -3 c822 -2 1133 0 1162 8 93 27 145 98 145 200 0 94 -42 161 -122
195 -33 13 -169 15 -1160 15 -980 -1 -1127 -3 -1158 -16z"/>
<path d="M120 1524 c-78 -34 -120 -101 -120 -194 0 -102 52 -173 145 -199 29
-9 340 -11 1155 -9 1105 3 1115 3 1155 24 23 12 54 41 73 68 28 42 32 57 32
113 0 97 -41 164 -122 198 -33 13 -169 15 -1160 15 -980 -1 -1127 -3 -1158
-16z"/>
<path d="M110 698 c-24 -13 -58 -40 -74 -61 -27 -34 -31 -48 -34 -115 -3 -71
-1 -80 27 -124 18 -29 47 -56 73 -70 l43 -23 1135 0 1135 0 47 28 c67 39 98
95 98 176 0 95 -42 162 -122 196 -33 13 -169 15 -1161 15 l-1123 0 -44 -22z"/>
</g>
</svg>
