<?xml version="1.0" standalone="no"?>
<!DOCTYPE svg PUBLIC "-//W3C//DTD SVG 20010904//EN"
 "http://www.w3.org/TR/2001/REC-SVG-20010904/DTD/svg10.dtd">
<svg version="1.0" xmlns="http://www.w3.org/2000/svg"
 width="116.000000pt" height="116.000000pt" viewBox="0 0 116.000000 116.000000"
 preserveAspectRatio="xMidYMid meet">
<metadata>
Created by potrace 1.15, written by Peter Selinger 2001-2017
</metadata>
<g transform="translate(0.000000,116.000000) scale(0.100000,-0.100000)"
fill="#000000" stroke="none">
<path d="M426 1145 c-153 -42 -303 -166 -369 -305 -55 -117 -58 -149 -55 -510
l3 -325 134 -3 c90 -2 138 1 147 9 11 9 14 62 14 275 0 225 -2 265 -16 278
-12 12 -37 16 -106 16 l-91 0 6 59 c18 172 147 337 315 402 85 33 220 38 309
11 125 -38 235 -128 297 -243 29 -52 56 -148 56 -196 l0 -33 -89 0 c-68 0 -93
-4 -105 -16 -14 -13 -16 -53 -16 -278 0 -213 3 -266 14 -275 9 -8 57 -11 147
-9 l134 3 3 329 c2 270 0 340 -13 389 -50 194 -198 352 -388 412 -63 20 -97
25 -180 24 -56 0 -124 -7 -151 -14z m-216 -855 l0 -200 -60 0 -60 0 0 200 0
200 60 0 60 0 0 -200z m860 0 l0 -200 -60 0 -60 0 0 200 0 200 60 0 60 0 0
-200z"/>
</g>
</svg>
