<?xml version="1.0" standalone="no"?>
<!DOCTYPE svg PUBLIC "-//W3C//DTD SVG 20010904//EN"
 "http://www.w3.org/TR/2001/REC-SVG-20010904/DTD/svg10.dtd">
<svg version="1.0" xmlns="http://www.w3.org/2000/svg"
 width="116.000000pt" height="116.000000pt" viewBox="0 0 116.000000 116.000000"
 preserveAspectRatio="xMidYMid meet">
<metadata>
Created by potrace 1.15, written by Peter Selinger 2001-2017
</metadata>
<g transform="translate(0.000000,116.000000) scale(0.100000,-0.100000)"
fill="#000000" stroke="none">
<path d="M423 1145 c-87 -24 -169 -71 -243 -142 -121 -114 -180 -250 -180
-413 0 -171 56 -306 175 -425 112 -113 242 -165 408 -165 170 0 287 49 408
170 119 119 169 239 169 405 0 172 -50 296 -169 415 -82 82 -159 127 -266 155
-73 19 -231 19 -302 0z m262 -86 c22 -6 59 -17 83 -26 l43 -16 -78 -79 -78
-78 -75 0 -76 0 -72 73 c-39 40 -72 75 -72 79 0 7 74 37 122 48 49 12 158 11
203 -1z m-303 -281 l-37 -38 -72 72 -73 72 37 38 37 38 73 -72 72 -72 -37 -38z
m510 39 l-73 -74 -35 35 -35 35 73 74 73 73 35 -35 35 -35 -73 -73z m-664 -90
l72 -72 0 -75 0 -75 -72 -72 c-40 -40 -76 -73 -80 -73 -3 0 -17 26 -29 58 -33
82 -33 242 0 325 12 31 26 57 29 57 4 0 40 -33 80 -73z m823 -8 c28 -92 23
-225 -11 -313 l-22 -58 -79 78 -78 77 0 71 1 71 76 77 c41 42 79 75 84 72 4
-3 17 -37 29 -75z m-396 32 c75 -35 115 -96 115 -174 -1 -100 -73 -176 -174
-185 -168 -14 -271 190 -158 312 34 36 97 66 142 66 19 0 53 -9 75 -19z m272
-518 l-37 -38 -73 73 -74 73 36 38 36 37 75 -73 75 -73 -38 -37z m-545 143
l35 -35 -72 -71 -72 -72 -37 33 -37 32 73 74 c40 40 73 73 74 73 1 0 17 -15
36 -34z m353 -156 l77 -78 -58 -22 c-106 -40 -258 -38 -361 5 l-37 16 78 78
79 79 72 0 72 1 78 -79z"/>
</g>
</svg>
