<?xml version="1.0" standalone="no"?>
<!DOCTYPE svg PUBLIC "-//W3C//DTD SVG 20010904//EN"
 "http://www.w3.org/TR/2001/REC-SVG-20010904/DTD/svg10.dtd">
<svg version="1.0" xmlns="http://www.w3.org/2000/svg"
 width="116.000000pt" height="116.000000pt" viewBox="0 0 116.000000 116.000000"
 preserveAspectRatio="xMidYMid meet">
<metadata>
Created by potrace 1.15, written by Peter Selinger 2001-2017
</metadata>
<g transform="translate(0.000000,116.000000) scale(0.100000,-0.100000)"
fill="#000000" stroke="none">
<path d="M277 882 l-277 -277 0 -291 c0 -234 3 -294 14 -303 9 -8 169 -10 577
-9 l564 3 3 300 2 300 -277 277 c-217 217 -283 278 -303 278 -20 0 -86 -61
-303 -278z m518 -42 l210 -210 -419 0 -419 0 204 209 c112 115 206 210 209
210 3 1 100 -93 215 -209z m275 -530 l0 -220 -155 0 -155 0 0 125 c0 113 -2
125 -19 135 -11 5 -84 10 -165 10 -118 0 -147 -3 -160 -16 -13 -12 -16 -40
-16 -135 l0 -119 -155 0 -155 0 0 220 0 220 490 0 490 0 0 -220z m-400 -130
l0 -90 -90 0 -90 0 0 90 0 90 90 0 90 0 0 -90z"/>
</g>
</svg>
