<?xml version="1.0" standalone="no"?>
<!DOCTYPE svg PUBLIC "-//W3C//DTD SVG 20010904//EN"
 "http://www.w3.org/TR/2001/REC-SVG-20010904/DTD/svg10.dtd">
<svg version="1.0" xmlns="http://www.w3.org/2000/svg"
 width="92.000000pt" height="116.000000pt" viewBox="0 0 92.000000 116.000000"
 preserveAspectRatio="xMidYMid meet">
<metadata>
Created by potrace 1.15, written by Peter Selinger 2001-2017
</metadata>
<g transform="translate(0.000000,116.000000) scale(0.100000,-0.100000)"
fill="#000000" stroke="none">
<path d="M7 1153 c-4 -3 -7 -52 -7 -108 0 -75 4 -106 14 -114 7 -6 16 -30 20
-53 16 -96 94 -211 184 -269 l43 -27 -43 -30 c-94 -65 -168 -172 -183 -264 -4
-23 -14 -50 -21 -59 -11 -12 -14 -41 -12 -120 l3 -104 455 0 455 0 3 104 c2
78 -1 108 -11 120 -8 9 -18 34 -22 56 -12 72 -64 162 -126 220 -32 29 -68 56
-79 60 -26 8 -26 22 0 30 11 4 47 31 79 60 62 58 114 148 126 220 4 22 14 47
22 56 10 12 13 42 11 120 l-3 104 -451 3 c-248 1 -454 -1 -457 -5z m823 -108
l0 -25 -370 0 -370 0 0 25 0 25 370 0 370 0 0 -25z m-30 -130 c0 -43 -47 -133
-94 -180 -79 -79 -131 -100 -246 -100 -80 0 -103 4 -145 25 -91 45 -173 146
-191 238 l-6 32 341 0 c293 0 341 -2 341 -15z m-218 -405 c100 -37 195 -146
213 -242 l7 -38 -341 0 c-378 0 -353 -5 -326 69 33 95 120 181 215 214 64 23
168 21 232 -3z m248 -395 l0 -25 -370 0 -370 0 0 25 0 25 370 0 370 0 0 -25z"/>
</g>
</svg>
