<?xml version="1.0" standalone="no"?>
<!DOCTYPE svg PUBLIC "-//W3C//DTD SVG 20010904//EN"
 "http://www.w3.org/TR/2001/REC-SVG-20010904/DTD/svg10.dtd">
<svg version="1.0" xmlns="http://www.w3.org/2000/svg"
 width="128.000000pt" height="128.000000pt" viewBox="0 0 128.000000 128.000000"
 preserveAspectRatio="xMidYMid meet">
<metadata>
Created by potrace 1.15, written by Peter Selinger 2001-2017
</metadata>
<g transform="translate(0.000000,128.000000) scale(0.100000,-0.100000)"
fill="#000000" stroke="none">
<path d="M551 1024 c-17 -14 -31 -34 -31 -45 0 -18 8 -19 115 -19 103 0 115 2
115 18 -1 43 -49 72 -119 72 -39 0 -56 -6 -80 -26z"/>
<path d="M588 843 c-14 -16 -30 -37 -36 -48 -6 -11 -12 -15 -12 -9 0 6 10 23
21 38 12 15 19 29 17 32 -9 8 -53 -13 -87 -41 -24 -21 -29 -30 -19 -36 10 -7
9 -9 -4 -9 -20 0 -43 -40 -53 -93 l-7 -37 50 0 51 0 6 43 c3 23 8 51 9 62 2
12 9 18 17 16 8 -3 33 -6 57 -9 l42 -4 0 61 c0 70 -11 77 -52 34z"/>
<path d="M650 810 l0 -60 31 0 c17 0 39 5 49 10 11 6 21 6 24 1 6 -9 -40 -21
-80 -21 -22 0 -24 -4 -24 -50 l0 -50 55 0 56 0 -5 53 -5 52 10 -52 11 -53 50
0 50 0 -7 37 c-4 21 -13 50 -21 66 -13 25 -19 28 -47 22 l-32 -5 29 13 29 13
-33 28 c-35 29 -79 50 -88 42 -2 -3 5 -17 17 -32 11 -15 21 -32 21 -38 0 -6
-6 -2 -12 9 -14 27 -60 75 -70 75 -4 0 -8 -27 -8 -60z"/>
<path d="M415 598 c13 -57 24 -78 47 -88 13 -5 17 -9 9 -9 -32 -2 66 -81 99
-81 7 0 3 14 -9 34 -12 18 -21 37 -21 42 0 5 10 -7 21 -26 49 -79 79 -80 79
-1 l0 60 -37 4 -38 4 38 1 37 2 0 45 0 45 -60 0 -60 0 5 -47 c6 -54 0 -48 -10
10 l-6 37 -50 0 -51 0 7 -32z"/>
<path d="M650 586 c0 -43 1 -45 33 -49 l32 -4 -32 -1 -33 -2 0 -60 c0 -33 3
-60 8 -60 14 1 40 26 61 60 11 19 21 31 21 26 0 -5 -9 -24 -21 -42 -12 -20
-16 -34 -9 -34 33 0 131 79 99 81 -8 0 -4 4 9 9 23 10 34 31 47 88 l7 32 -51
0 -50 0 -6 -37 c-10 -58 -16 -64 -10 -10 l5 47 -55 0 -55 0 0 -44z"/>
<path d="M133 599 c-33 -9 -73 -51 -73 -75 0 -11 25 -14 121 -14 120 0 120 0
113 23 -10 34 -34 56 -73 67 -41 11 -45 11 -88 -1z"/>
<path d="M1054 599 c-34 -10 -58 -33 -68 -66 -7 -23 -7 -23 113 -23 96 0 121
3 121 14 0 25 -41 65 -78 76 -42 11 -46 11 -88 -1z"/>
<path d="M583 149 c-34 -10 -63 -42 -63 -71 0 -16 11 -18 115 -18 104 0 115 2
115 18 0 30 -29 61 -68 72 -43 12 -56 11 -99 -1z"/>
</g>
</svg>
