<?xml version="1.0" standalone="no"?>
<!DOCTYPE svg PUBLIC "-//W3C//DTD SVG 20010904//EN"
 "http://www.w3.org/TR/2001/REC-SVG-20010904/DTD/svg10.dtd">
<svg version="1.0" xmlns="http://www.w3.org/2000/svg"
 width="128.000000pt" height="128.000000pt" viewBox="0 0 128.000000 128.000000"
 preserveAspectRatio="xMidYMid meet">
<metadata>
Created by potrace 1.15, written by Peter Selinger 2001-2017
</metadata>
<g transform="translate(0.000000,128.000000) scale(0.100000,-0.100000)"
fill="#000000" stroke="none">
<path d="M816 1268 c-17 -64 -22 -72 -55 -81 -31 -8 -37 -6 -58 22 -28 36 -42
38 -73 13 -21 -17 -22 -21 -10 -56 11 -35 10 -39 -14 -65 -25 -26 -29 -27 -67
-17 -36 9 -43 8 -55 -9 -19 -25 -18 -55 1 -55 33 0 77 -32 91 -66 l15 -35 26
21 c14 11 32 20 39 20 8 0 26 13 40 30 57 64 154 87 232 54 143 -59 176 -246
62 -348 -17 -14 -30 -32 -30 -40 0 -7 -9 -25 -20 -39 l-21 -26 35 -15 c34 -14
66 -58 66 -91 0 -19 30 -20 55 -1 17 12 18 19 9 55 -10 38 -9 42 17 67 26 24
30 25 65 14 35 -12 39 -11 56 10 25 31 23 45 -13 73 -28 21 -30 27 -22 58 9
33 17 38 81 55 6 2 12 19 12 38 0 31 -4 36 -27 41 -43 9 -56 19 -66 49 -8 24
-5 32 24 62 29 30 31 36 20 60 -11 25 -14 26 -63 20 -72 -10 -91 9 -82 81 6
50 5 53 -20 64 -24 11 -30 9 -60 -20 -30 -29 -38 -32 -62 -24 -30 10 -40 23
-49 66 -5 23 -10 27 -41 27 -19 0 -36 -6 -38 -12z"/>
<path d="M426 906 c-8 -42 -23 -55 -72 -63 -33 -5 -40 -3 -60 23 -20 25 -26
27 -51 18 -26 -9 -28 -13 -25 -59 2 -41 -2 -53 -25 -77 -23 -25 -33 -28 -77
-26 -47 3 -51 1 -60 -24 -8 -24 -6 -32 18 -57 24 -25 27 -34 21 -63 -10 -45
-21 -56 -61 -64 -32 -6 -34 -9 -34 -45 0 -36 2 -39 35 -45 42 -8 52 -19 61
-70 5 -36 3 -42 -20 -57 -29 -19 -35 -57 -12 -76 10 -8 30 -10 58 -6 39 6 46
4 72 -23 25 -27 27 -35 21 -71 -8 -48 5 -71 41 -71 14 0 30 10 41 26 15 23 21
25 57 20 51 -9 62 -19 70 -61 6 -33 9 -35 45 -35 36 0 39 2 45 34 8 40 19 51
64 61 29 6 38 3 63 -21 25 -24 33 -26 57 -18 25 9 27 14 24 59 -2 41 2 53 25
77 23 25 33 28 77 26 47 -3 51 -1 60 25 9 25 7 31 -18 51 -26 20 -28 27 -23
60 8 49 21 64 63 72 32 6 34 9 34 44 0 35 -2 38 -34 44 -42 8 -55 23 -63 71
-5 32 -2 40 23 60 26 20 28 26 18 51 -9 27 -13 29 -60 26 -44 -2 -54 1 -77 26
-23 24 -27 36 -25 77 3 46 1 50 -26 59 -25 10 -31 8 -51 -18 -20 -25 -28 -28
-60 -23 -48 8 -63 21 -71 63 -6 32 -9 34 -44 34 -35 0 -38 -2 -44 -34z m139
-210 c63 -29 102 -68 131 -131 31 -64 31 -126 0 -190 -27 -59 -56 -91 -111
-125 -33 -21 -52 -25 -115 -25 -84 0 -118 14 -175 70 -56 57 -70 91 -70 176 0
71 2 79 37 131 29 45 49 62 99 87 77 38 134 40 204 7z"/>
<path d="M425 548 c-32 -19 -44 -40 -45 -81 0 -52 35 -87 87 -87 42 1 63 13
81 47 41 77 -47 164 -123 121z"/>
</g>
</svg>
