<?xml version="1.0" standalone="no"?>
<!DOCTYPE svg PUBLIC "-//W3C//DTD SVG 20010904//EN"
 "http://www.w3.org/TR/2001/REC-SVG-20010904/DTD/svg10.dtd">
<svg version="1.0" xmlns="http://www.w3.org/2000/svg"
 width="128.000000pt" height="128.000000pt" viewBox="0 0 128.000000 128.000000"
 preserveAspectRatio="xMidYMid meet">
<metadata>
Created by potrace 1.15, written by Peter Selinger 2001-2017
</metadata>
<g transform="translate(0.000000,128.000000) scale(0.100000,-0.100000)"
fill="#000000" stroke="none">
<path d="M386 1269 c-174 -41 -339 -211 -377 -389 -16 -74 -7 -243 16 -300 31
-77 105 -180 162 -224 l53 -41 0 -157 c0 -87 2 -158 5 -158 3 0 86 54 185 120
l180 120 117 0 c66 0 140 6 168 14 181 48 323 190 371 371 18 66 17 206 -1
274 -46 176 -190 320 -366 366 -62 17 -447 19 -513 4z m499 -179 c45 -17 75
-38 121 -84 75 -77 104 -144 104 -246 0 -103 -29 -171 -104 -246 -82 -82 -139
-103 -300 -111 l-121 -6 -90 -53 -90 -54 -3 68 -3 67 -45 24 c-25 14 -67 48
-94 78 -190 207 -68 538 215 584 28 4 118 6 200 5 125 -3 160 -8 210 -26z"/>
</g>
</svg>
