<?xml version="1.0" standalone="no"?>
<!DOCTYPE svg PUBLIC "-//W3C//DTD SVG 20010904//EN"
 "http://www.w3.org/TR/2001/REC-SVG-20010904/DTD/svg10.dtd">
<svg version="1.0" xmlns="http://www.w3.org/2000/svg"
 width="128.000000pt" height="128.000000pt" viewBox="0 0 128.000000 128.000000"
 preserveAspectRatio="xMidYMid meet">
<metadata>
Created by potrace 1.15, written by Peter Selinger 2001-2017
</metadata>
<g transform="translate(0.000000,128.000000) scale(0.100000,-0.100000)"
fill="#000000" stroke="none">
<path d="M488 1101 c-74 -24 -144 -69 -200 -129 -91 -97 -128 -194 -128 -332
0 -138 37 -235 128 -332 95 -101 206 -148 352 -148 146 0 257 47 352 148 91
97 128 194 128 332 0 138 -37 235 -128 332 -57 61 -127 105 -203 129 -81 25
-222 25 -301 0z m240 -105 c164 -44 275 -187 275 -356 0 -108 -29 -178 -107
-256 -78 -78 -148 -107 -256 -107 -98 0 -172 28 -243 93 -157 143 -167 362
-24 517 94 102 226 143 355 109z"/>
<path d="M440 605 l0 -145 50 0 50 0 0 145 0 145 -50 0 -50 0 0 -145z"/>
<path d="M580 605 l0 -145 50 0 49 0 3 96 c2 79 6 99 21 108 12 8 22 8 35 0
14 -9 18 -29 20 -108 l3 -96 49 0 50 0 0 89 c0 112 -7 144 -36 176 -18 20 -33
25 -69 25 -26 0 -55 -5 -65 -10 -13 -7 -21 -7 -25 0 -3 5 -24 10 -46 10 l-39
0 0 -145z"/>
</g>
</svg>
