<?xml version="1.0" standalone="no"?>
<!DOCTYPE svg PUBLIC "-//W3C//DTD SVG 20010904//EN"
 "http://www.w3.org/TR/2001/REC-SVG-20010904/DTD/svg10.dtd">
<svg version="1.0" xmlns="http://www.w3.org/2000/svg"
 width="128.000000pt" height="128.000000pt" viewBox="0 0 128.000000 128.000000"
 preserveAspectRatio="xMidYMid meet">
<metadata>
Created by potrace 1.15, written by Peter Selinger 2001-2017
</metadata>
<g transform="translate(0.000000,128.000000) scale(0.100000,-0.100000)"
fill="#000000" stroke="none">
<path d="M230 937 c-36 -18 -46 -62 -54 -229 l-7 -148 26 -26 c22 -22 32 -25
63 -21 21 4 46 17 58 31 l21 24 -1 -40 c-1 -43 24 -73 55 -65 11 3 21 -4 28
-19 6 -13 19 -24 29 -24 11 0 27 -9 37 -20 10 -11 27 -20 37 -20 11 0 31 -9
45 -20 14 -11 33 -20 42 -20 9 0 25 -7 35 -15 29 -22 53 -18 82 10 15 15 36
25 54 25 16 0 35 8 42 18 7 9 25 23 41 29 15 7 27 19 27 28 0 9 9 15 23 15 31
0 47 18 47 52 0 35 13 36 34 3 14 -21 24 -25 66 -25 39 0 52 4 60 19 6 12 10
94 10 196 0 173 0 176 -25 200 -45 46 -135 27 -149 -30 -5 -21 -12 -25 -44
-25 -21 0 -64 9 -96 21 -36 12 -78 19 -107 18 -34 -2 -54 2 -67 14 -23 21 -79
22 -152 2 -30 -8 -74 -15 -98 -15 -35 0 -44 4 -53 24 -11 23 -47 46 -72 46 -7
0 -23 -6 -37 -13z m61 -44 c12 -15 13 -47 9 -168 l-5 -149 -27 -16 c-25 -13
-29 -13 -43 1 -14 14 -15 35 -7 169 8 130 12 155 28 167 23 17 28 17 45 -4z
m787 -25 c8 -8 12 -63 12 -181 l0 -168 -32 3 -33 3 -10 152 c-6 84 -14 155
-18 159 -3 4 -2 15 4 25 11 22 58 26 77 7z m-468 -2 c0 -2 -27 -20 -60 -40
-76 -47 -89 -69 -63 -105 26 -34 67 -38 153 -12 97 30 115 21 201 -96 78 -105
88 -123 67 -123 -7 0 -42 34 -77 75 -35 41 -70 75 -78 75 -28 0 -11 -40 46
-104 56 -63 68 -96 36 -96 -7 0 -39 32 -71 70 -32 39 -64 70 -71 70 -27 0 -11
-38 42 -102 30 -36 55 -69 55 -72 0 -3 -7 -6 -15 -6 -21 0 -75 41 -75 57 0 7
-9 18 -20 25 -11 7 -20 21 -20 32 0 25 -28 56 -51 56 -10 0 -23 9 -29 20 -6
12 -21 20 -35 20 -14 0 -34 9 -45 20 -11 11 -31 20 -44 20 -13 0 -35 -9 -49
-20 -14 -11 -35 -20 -46 -20 -20 0 -21 5 -21 115 l0 115 53 0 c28 0 75 7 102
14 47 13 115 20 115 12z m175 -42 c28 -9 79 -19 115 -22 l65 -7 8 -109 c5 -59
7 -109 5 -111 -2 -1 -13 -5 -25 -9 -18 -6 -29 5 -77 73 -90 128 -131 146 -246
111 -119 -37 -143 -11 -45 49 71 42 126 49 200 25z"/>
</g>
</svg>
