<?xml version="1.0" standalone="no"?>
<!DOCTYPE svg PUBLIC "-//W3C//DTD SVG 20010904//EN"
 "http://www.w3.org/TR/2001/REC-SVG-20010904/DTD/svg10.dtd">
<svg version="1.0" xmlns="http://www.w3.org/2000/svg"
 width="128.000000pt" height="128.000000pt" viewBox="0 0 128.000000 128.000000"
 preserveAspectRatio="xMidYMid meet">
<metadata>
Created by potrace 1.15, written by Peter Selinger 2001-2017
</metadata>
<g transform="translate(0.000000,128.000000) scale(0.100000,-0.100000)"
fill="#000000" stroke="none">
<path d="M262 1219 c-62 -31 -95 -86 -100 -165 -8 -124 61 -204 184 -212 124
-8 204 61 212 184 5 81 -22 143 -81 182 -56 37 -154 42 -215 11z m174 -103
c28 -28 34 -42 34 -76 0 -34 -6 -48 -34 -76 -28 -28 -42 -34 -76 -34 -34 0
-48 6 -76 34 -28 28 -34 42 -34 76 0 34 6 48 34 76 28 28 42 34 76 34 34 0 48
-6 76 -34z"/>
<path d="M822 1219 c-62 -31 -95 -86 -100 -165 -8 -124 61 -204 184 -212 124
-8 204 61 212 184 5 81 -22 143 -81 182 -56 37 -154 42 -215 11z m174 -103
c28 -28 34 -42 34 -76 0 -34 -6 -48 -34 -76 -28 -28 -42 -34 -76 -34 -34 0
-48 6 -76 34 -28 28 -34 42 -34 76 0 34 6 48 34 76 28 28 42 34 76 34 34 0 48
-6 76 -34z"/>
<path d="M535 861 c-87 -40 -135 -120 -135 -223 1 -142 97 -238 240 -238 144
0 240 96 240 240 0 104 -53 187 -142 224 -52 22 -153 20 -203 -3z m183 -91
c130 -79 74 -280 -78 -280 -85 0 -150 65 -150 150 0 85 65 150 150 150 27 0
58 -8 78 -20z"/>
<path d="M113 798 l-73 -30 0 -80 c0 -95 17 -132 79 -166 35 -20 52 -22 138
-20 l98 3 3 34 c2 20 -2 37 -10 42 -7 5 -48 9 -90 9 -65 0 -81 3 -102 23 -16
14 -27 34 -28 55 -3 32 0 35 47 54 63 25 75 35 75 62 0 53 -35 57 -137 14z"/>
<path d="M1042 818 c-16 -16 -15 -53 1 -66 7 -6 35 -19 62 -30 47 -19 50 -22
47 -54 -1 -21 -12 -41 -28 -55 -21 -20 -37 -23 -102 -23 -42 0 -83 -4 -90 -9
-8 -5 -12 -22 -10 -42 l3 -34 98 -3 c86 -2 103 0 138 20 62 34 79 71 79 166
l0 80 -77 31 c-86 34 -103 37 -121 19z"/>
<path d="M380 377 c-41 -18 -81 -36 -88 -40 -8 -6 -12 -38 -12 -100 0 -104 16
-142 72 -177 31 -19 51 -20 289 -20 249 0 257 1 289 23 52 34 73 79 78 166 5
94 -4 107 -101 145 -82 32 -123 34 -132 6 -12 -38 4 -56 75 -84 65 -26 70 -30
70 -57 0 -51 -25 -95 -60 -108 -44 -15 -396 -15 -440 0 -35 13 -60 57 -60 108
0 26 6 31 73 58 64 26 72 32 75 58 3 19 -2 33 -14 42 -23 17 -26 17 -114 -20z"/>
</g>
</svg>
