<?xml version="1.0" standalone="no"?>
<!DOCTYPE svg PUBLIC "-//W3C//DTD SVG 20010904//EN"
 "http://www.w3.org/TR/2001/REC-SVG-20010904/DTD/svg10.dtd">
<svg version="1.0" xmlns="http://www.w3.org/2000/svg"
 width="128.000000pt" height="128.000000pt" viewBox="0 0 128.000000 128.000000"
 preserveAspectRatio="xMidYMid meet">
<metadata>
Created by potrace 1.15, written by Peter Selinger 2001-2017
</metadata>
<g transform="translate(0.000000,128.000000) scale(0.100000,-0.100000)"
fill="#000000" stroke="none">
<path d="M593 1108 c-5 -7 -12 -20 -15 -28 -3 -8 -26 -21 -50 -27 -86 -23
-160 -99 -189 -193 -5 -19 -14 -98 -19 -176 -12 -180 -31 -237 -106 -309 -30
-28 -54 -54 -54 -58 0 -4 216 -7 480 -7 264 0 480 3 480 7 0 4 -24 30 -54 58
-75 72 -94 129 -106 309 -5 78 -14 157 -19 176 -29 93 -92 160 -182 190 -33
11 -55 26 -63 41 -9 18 -21 25 -52 27 -25 2 -45 -2 -51 -10z"/>
<path d="M510 252 c0 -47 63 -92 130 -92 67 0 130 45 130 92 0 16 -12 18 -130
18 -118 0 -130 -2 -130 -18z"/>
</g>
</svg>
