<?xml version="1.0" standalone="no"?>
<!DOCTYPE svg PUBLIC "-//W3C//DTD SVG 20010904//EN"
 "http://www.w3.org/TR/2001/REC-SVG-20010904/DTD/svg10.dtd">
<svg version="1.0" xmlns="http://www.w3.org/2000/svg"
 width="128.000000pt" height="128.000000pt" viewBox="0 0 128.000000 128.000000"
 preserveAspectRatio="xMidYMid meet">
<metadata>
Created by potrace 1.15, written by Peter Selinger 2001-2017
</metadata>
<g transform="translate(0.000000,128.000000) scale(0.100000,-0.100000)"
fill="#000000" stroke="none">
<path d="M545 1255 c-55 -14 -110 -65 -121 -112 -4 -15 -17 -35 -28 -44 -18
-15 -21 -28 -21 -98 0 -78 1 -81 33 -110 17 -17 32 -35 32 -42 0 -7 14 -34 31
-61 37 -57 116 -108 167 -108 71 0 161 73 197 162 11 25 28 49 39 54 41 19 49
171 10 203 -11 9 -28 35 -38 59 -26 57 -64 88 -126 101 -65 14 -113 13 -175
-4z m179 -79 c33 -14 66 -65 66 -103 0 -11 11 -29 25 -41 27 -23 25 -47 -6
-70 -10 -6 -25 -35 -34 -63 -21 -62 -90 -139 -126 -139 -57 0 -119 68 -149
164 -7 23 -20 41 -31 43 -26 7 -25 54 1 71 11 7 20 21 20 32 0 42 29 90 62
105 42 18 129 19 172 1z"/>
<path d="M535 641 c-85 -11 -132 -26 -192 -61 -103 -59 -165 -171 -186 -334
-11 -86 -11 -89 11 -106 29 -23 154 -76 228 -95 208 -54 416 -39 620 46 41 17
84 39 96 49 21 17 22 20 10 110 -35 261 -164 378 -432 393 -52 3 -122 2 -155
-2z m135 -158 c7 -49 16 -107 20 -130 6 -38 4 -45 -21 -69 l-29 -28 -29 28
c-25 24 -27 31 -21 69 4 23 13 81 20 130 10 72 15 87 30 87 15 0 20 -15 30
-87z m-134 50 c-3 -16 -13 -79 -22 -142 l-17 -114 59 -53 c76 -68 92 -68 168
0 l59 53 -21 139 c-12 76 -19 140 -17 142 2 2 35 -5 72 -16 119 -37 190 -118
218 -248 22 -104 25 -99 -65 -133 -128 -50 -203 -64 -330 -64 -127 0 -202 14
-330 64 -89 34 -87 29 -66 130 29 136 99 217 221 255 65 21 77 18 71 -13z"/>
</g>
</svg>
