<?xml version="1.0" standalone="no"?>
<!DOCTYPE svg PUBLIC "-//W3C//DTD SVG 20010904//EN"
 "http://www.w3.org/TR/2001/REC-SVG-20010904/DTD/svg10.dtd">
<svg version="1.0" xmlns="http://www.w3.org/2000/svg"
 width="116.000000pt" height="116.000000pt" viewBox="0 0 116.000000 116.000000"
 preserveAspectRatio="xMidYMid meet">
<metadata>
Created by potrace 1.15, written by Peter Selinger 2001-2017
</metadata>
<g transform="translate(0.000000,116.000000) scale(0.100000,-0.100000)"
fill="#000000" stroke="none">
<path d="M426 1145 c-194 -54 -359 -220 -411 -415 -19 -71 -19 -229 0 -300 52
-197 218 -363 415 -415 71 -19 229 -19 300 0 197 52 363 218 415 415 19 71 19
229 0 300 -52 197 -218 363 -415 415 -68 18 -237 18 -304 0z m357 -117 c179
-85 287 -255 287 -449 0 -229 -165 -433 -388 -480 -77 -16 -203 -6 -274 21
-123 46 -242 164 -289 288 -33 87 -37 221 -11 309 38 122 134 243 237 295 94
49 135 58 250 55 104 -2 114 -4 188 -39z"/>
<path d="M511 904 c-12 -15 -21 -34 -21 -44 0 -10 9 -29 21 -44 41 -53 119
-21 119 48 0 64 -79 90 -119 40z"/>
<path d="M452 718 c-15 -15 -15 -51 0 -66 7 -7 36 -12 65 -12 l53 0 0 -155 0
-155 -53 0 c-57 0 -77 -12 -77 -45 0 -41 16 -45 181 -45 175 0 191 6 173 58
-9 25 -14 27 -72 30 l-62 3 0 187 c0 133 -4 192 -12 200 -7 7 -44 12 -98 12
-54 0 -91 -5 -98 -12z"/>
</g>
</svg>
