<?xml version="1.0" standalone="no"?>
<!DOCTYPE svg PUBLIC "-//W3C//DTD SVG 20010904//EN"
 "http://www.w3.org/TR/2001/REC-SVG-20010904/DTD/svg10.dtd">
<svg version="1.0" xmlns="http://www.w3.org/2000/svg"
 width="116.000000pt" height="116.000000pt" viewBox="0 0 116.000000 116.000000"
 preserveAspectRatio="xMidYMid meet">
<metadata>
Created by potrace 1.15, written by Peter Selinger 2001-2017
</metadata>
<g transform="translate(0.000000,116.000000) scale(0.100000,-0.100000)"
fill="#000000" stroke="none">
<path d="M5 1148 c-3 -7 -4 -267 -3 -578 l3 -565 575 0 575 0 3 30 c7 56 15
55 -550 55 l-518 0 0 516 c0 336 -4 522 -10 535 -12 22 -68 27 -75 7z"/>
<path d="M190 1141 c-6 -13 -10 -177 -10 -470 0 -438 1 -452 20 -471 19 -19
33 -20 473 -20 347 0 457 3 470 13 16 11 17 49 15 487 l-3 475 -477 3 c-464 2
-477 2 -488 -17z m880 -471 l0 -400 -400 0 -400 0 0 400 0 400 400 0 400 0 0
-400z"/>
</g>
</svg>
