<?xml version="1.0" standalone="no"?>
<!DOCTYPE svg PUBLIC "-//W3C//DTD SVG 20010904//EN"
 "http://www.w3.org/TR/2001/REC-SVG-20010904/DTD/svg10.dtd">
<svg version="1.0" xmlns="http://www.w3.org/2000/svg"
 width="116.000000pt" height="116.000000pt" viewBox="0 0 116.000000 116.000000"
 preserveAspectRatio="xMidYMid meet">
<metadata>
Created by potrace 1.15, written by Peter Selinger 2001-2017
</metadata>
<g transform="translate(0.000000,116.000000) scale(0.100000,-0.100000)"
fill="#000000" stroke="none">
<path d="M426 1145 c-194 -54 -359 -220 -411 -415 -19 -71 -19 -229 0 -300 52
-197 218 -363 415 -415 71 -19 229 -19 300 0 197 52 363 218 415 415 19 71 19
229 0 300 -52 197 -218 363 -415 415 -68 18 -237 18 -304 0z m296 -95 c169
-52 303 -198 339 -368 16 -77 6 -203 -21 -274 -46 -123 -165 -242 -288 -288
-71 -27 -197 -37 -274 -21 -333 70 -495 461 -310 747 120 184 348 268 554 204z"/>
<path d="M499 753 c-75 -76 -140 -149 -144 -162 -6 -20 12 -42 143 -173 132
-132 153 -149 173 -143 28 9 39 23 39 49 0 11 -50 70 -120 140 l-120 122 116
114 c116 116 137 148 114 175 -31 37 -60 19 -201 -122z"/>
</g>
</svg>
