<?xml version="1.0" standalone="no"?>
<!DOCTYPE svg PUBLIC "-//W3C//DTD SVG 20010904//EN"
 "http://www.w3.org/TR/2001/REC-SVG-20010904/DTD/svg10.dtd">
<svg version="1.0" xmlns="http://www.w3.org/2000/svg"
 width="62.000000pt" height="116.000000pt" viewBox="0 0 62.000000 116.000000"
 preserveAspectRatio="xMidYMid meet">
<metadata>
Created by potrace 1.15, written by Peter Selinger 2001-2017
</metadata>
<g transform="translate(0.000000,116.000000) scale(0.100000,-0.100000)"
fill="#000000" stroke="none">
<path d="M277 883 c-215 -216 -277 -284 -277 -303 0 -20 62 -87 278 -303 252
-252 282 -278 308 -275 24 2 30 8 32 32 3 26 -22 55 -255 288 l-258 258 258
258 c233 233 258 262 255 288 -2 24 -8 29 -33 32 -27 2 -56 -23 -308 -275z"/>
</g>
</svg>
