<?xml version="1.0" standalone="no"?>
<!DOCTYPE svg PUBLIC "-//W3C//DTD SVG 20010904//EN"
 "http://www.w3.org/TR/2001/REC-SVG-20010904/DTD/svg10.dtd">
<svg version="1.0" xmlns="http://www.w3.org/2000/svg"
 width="76.000000pt" height="116.000000pt" viewBox="0 0 76.000000 116.000000"
 preserveAspectRatio="xMidYMid meet">
<metadata>
Created by potrace 1.15, written by Peter Selinger 2001-2017
</metadata>
<g transform="translate(0.000000,116.000000) scale(0.100000,-0.100000)"
fill="#000000" stroke="none">
<path d="M232 865 c-152 -193 -232 -302 -232 -318 0 -43 15 -47 175 -47 l151
0 -38 -223 c-21 -122 -37 -233 -36 -247 3 -21 8 -25 38 -25 35 0 37 3 252 315
215 311 239 355 206 377 -7 4 -74 10 -149 13 l-135 5 38 208 c42 225 42 237
-11 237 -22 0 -59 -42 -259 -295z m151 -78 c-19 -103 -23 -140 -14 -150 7 -10
47 -16 127 -20 64 -3 118 -8 121 -11 3 -2 -48 -82 -113 -176 -65 -94 -120
-167 -122 -162 -1 5 6 60 18 122 23 132 25 173 7 188 -8 7 -68 13 -141 14
l-127 3 132 168 c73 92 134 166 135 164 2 -2 -8 -65 -23 -140z"/>
</g>
</svg>
