<?xml version="1.0" standalone="no"?>
<!DOCTYPE svg PUBLIC "-//W3C//DTD SVG 20010904//EN"
 "http://www.w3.org/TR/2001/REC-SVG-20010904/DTD/svg10.dtd">
<svg version="1.0" xmlns="http://www.w3.org/2000/svg"
 width="116.000000pt" height="116.000000pt" viewBox="0 0 116.000000 116.000000"
 preserveAspectRatio="xMidYMid meet">
<metadata>
Created by potrace 1.15, written by Peter Selinger 2001-2017
</metadata>
<g transform="translate(0.000000,116.000000) scale(0.100000,-0.100000)"
fill="#000000" stroke="none">
<path d="M745 1144 c-43 -22 -293 -272 -316 -316 -10 -21 -19 -46 -19 -58 0
-13 -7 -20 -20 -20 -12 0 -37 -9 -58 -19 -47 -24 -307 -287 -321 -324 -16 -42
-13 -114 5 -150 23 -44 169 -193 223 -228 52 -34 122 -39 176 -13 18 8 96 79
173 158 119 120 143 150 153 188 11 41 16 46 57 57 37 10 67 34 175 139 155
152 187 197 187 263 0 26 -5 60 -11 75 -13 37 -216 240 -253 253 -40 16 -116
13 -151 -5z m212 -187 c65 -65 113 -121 113 -132 0 -28 -290 -315 -318 -315
-12 0 -39 15 -59 34 l-37 33 27 32 c63 75 2 138 -73 75 l-31 -27 -35 34 c-58
56 -53 66 114 232 85 84 156 147 167 147 11 0 68 -49 132 -113z m-488 -341
l34 -35 -27 -31 c-63 -75 -1 -137 69 -70 l32 31 36 -41 c21 -22 37 -50 37 -62
0 -26 -272 -303 -309 -313 -20 -6 -39 9 -137 107 -64 64 -114 122 -114 133 0
11 63 82 147 167 166 167 176 172 232 114z"/>
</g>
</svg>
