<?xml version="1.0" standalone="no"?>
<!DOCTYPE svg PUBLIC "-//W3C//DTD SVG 20010904//EN"
 "http://www.w3.org/TR/2001/REC-SVG-20010904/DTD/svg10.dtd">
<svg version="1.0" xmlns="http://www.w3.org/2000/svg"
 width="116.000000pt" height="116.000000pt" viewBox="0 0 116.000000 116.000000"
 preserveAspectRatio="xMidYMid meet">
<metadata>
Created by potrace 1.15, written by Peter Selinger 2001-2017
</metadata>
<g transform="translate(0.000000,116.000000) scale(0.100000,-0.100000)"
fill="#000000" stroke="none">
<path d="M5 1148 c-3 -7 -4 -267 -3 -578 l3 -565 303 -3 302 -2 10 26 c6 14
10 115 10 224 0 177 -2 200 -18 220 -23 29 -67 22 -76 -12 -3 -13 -6 -101 -6
-195 l0 -173 -220 0 -220 0 0 490 0 490 220 0 220 0 0 -172 c0 -95 3 -183 6
-196 9 -34 53 -41 76 -12 16 20 18 43 18 220 0 109 -4 210 -10 224 l-10 26
-300 0 c-231 0 -302 -3 -305 -12z"/>
<path d="M810 871 c-5 -11 -10 -25 -10 -32 0 -6 46 -58 102 -115 l102 -104
-362 0 -363 0 -8 -22 c-6 -15 -5 -30 4 -43 12 -19 25 -20 370 -23 l359 -2
-102 -104 c-56 -57 -102 -108 -102 -115 0 -15 37 -51 52 -51 6 0 78 66 160
147 114 113 148 153 148 173 0 38 -274 310 -312 310 -17 0 -31 -8 -38 -19z"/>
</g>
</svg>
