<?xml version="1.0" standalone="no"?>
<!DOCTYPE svg PUBLIC "-//W3C//DTD SVG 20010904//EN"
 "http://www.w3.org/TR/2001/REC-SVG-20010904/DTD/svg10.dtd">
<svg version="1.0" xmlns="http://www.w3.org/2000/svg"
 width="116.000000pt" height="116.000000pt" viewBox="0 0 116.000000 116.000000"
 preserveAspectRatio="xMidYMid meet">
<metadata>
Created by potrace 1.15, written by Peter Selinger 2001-2017
</metadata>
<g transform="translate(0.000000,116.000000) scale(0.100000,-0.100000)"
fill="#000000" stroke="none">
<path d="M426 1145 c-160 -44 -294 -155 -371 -307 -52 -104 -56 -139 -53 -503
l3 -330 134 -3 c90 -2 138 1 147 9 11 9 14 67 14 308 0 342 4 369 72 446 109
124 286 129 406 12 77 -76 82 -102 82 -450 0 -222 3 -306 12 -315 17 -17 259
-17 276 0 19 19 17 646 -3 721 -51 197 -214 359 -415 412 -68 18 -237 18 -304
0z m296 -95 c121 -37 230 -126 291 -237 46 -86 57 -150 57 -340 l0 -173 -59 0
-59 0 -4 193 c-3 184 -4 194 -30 249 -130 279 -537 280 -674 2 -29 -58 -29
-62 -32 -251 l-4 -193 -59 0 -59 0 0 178 c0 192 8 239 57 337 32 61 133 164
193 195 121 63 262 77 382 40z"/>
</g>
</svg>
