<?xml version="1.0" standalone="no"?>
<!DOCTYPE svg PUBLIC "-//W3C//DTD SVG 20010904//EN"
 "http://www.w3.org/TR/2001/REC-SVG-20010904/DTD/svg10.dtd">
<svg version="1.0" xmlns="http://www.w3.org/2000/svg"
 width="116.000000pt" height="116.000000pt" viewBox="0 0 116.000000 116.000000"
 preserveAspectRatio="xMidYMid meet">
<metadata>
Created by potrace 1.15, written by Peter Selinger 2001-2017
</metadata>
<g transform="translate(0.000000,116.000000) scale(0.100000,-0.100000)"
fill="#000000" stroke="none">
<path d="M7 1153 c-4 -3 -7 -237 -7 -519 0 -479 1 -514 18 -523 31 -16 358
-111 384 -111 13 0 99 23 191 51 l167 50 169 -51 c93 -28 182 -50 198 -48 l28
3 3 517 c2 485 1 518 -15 526 -32 17 -359 112 -385 112 -13 0 -99 -23 -191
-51 l-167 -50 -167 50 c-159 49 -212 59 -226 44z m224 -140 l119 -37 0 -433
c0 -317 -3 -433 -11 -433 -7 0 -57 14 -113 31 -56 17 -109 33 -119 35 -16 5
-17 35 -17 440 0 302 3 434 11 434 6 0 64 -17 130 -37z m479 -396 l0 -434
-119 -36 c-65 -20 -123 -37 -130 -37 -8 0 -11 115 -11 433 l0 434 118 36 c64
20 123 36 130 36 9 1 12 -92 12 -432z m238 397 l122 -37 0 -437 0 -438 -92 29
c-51 16 -110 34 -130 40 l-38 10 0 434 c0 239 3 435 8 435 4 0 62 -16 130 -36z"/>
</g>
</svg>
