<?xml version="1.0" standalone="no"?>
<!DOCTYPE svg PUBLIC "-//W3C//DTD SVG 20010904//EN"
 "http://www.w3.org/TR/2001/REC-SVG-20010904/DTD/svg10.dtd">
<svg version="1.0" xmlns="http://www.w3.org/2000/svg"
 width="62.000000pt" height="62.000000pt" viewBox="0 0 62.000000 62.000000"
 preserveAspectRatio="xMidYMid meet">
<metadata>
Created by potrace 1.15, written by Peter Selinger 2001-2017
</metadata>
<g transform="translate(0.000000,62.000000) scale(0.100000,-0.100000)"
fill="#000000" stroke="none">
<path d="M7 613 c-15 -14 -7 -62 12 -73 12 -6 124 -10 293 -10 301 0 312 2
306 55 l-3 30 -301 3 c-165 1 -303 -1 -307 -5z"/>
<path d="M17 349 c-10 -6 -17 -22 -17 -40 0 -22 6 -32 26 -39 14 -6 140 -10
284 -10 144 0 270 4 284 10 33 12 37 64 7 80 -26 14 -560 13 -584 -1z"/>
<path d="M16 77 c-12 -9 -17 -23 -14 -42 l3 -30 305 0 305 0 3 30 c6 53 -4 55
-308 55 -211 0 -280 -3 -294 -13z"/>
</g>
</svg>
