<?xml version="1.0" standalone="no"?>
<!DOCTYPE svg PUBLIC "-//W3C//DTD SVG 20010904//EN"
 "http://www.w3.org/TR/2001/REC-SVG-20010904/DTD/svg10.dtd">
<svg version="1.0" xmlns="http://www.w3.org/2000/svg"
 width="116.000000pt" height="108.000000pt" viewBox="0 0 116.000000 108.000000"
 preserveAspectRatio="xMidYMid meet">
<metadata>
Created by potrace 1.15, written by Peter Selinger 2001-2017
</metadata>
<g transform="translate(0.000000,108.000000) scale(0.100000,-0.100000)"
fill="#000000" stroke="none">
<path d="M5 1068 c-3 -7 -4 -189 -3 -403 l3 -390 263 -3 262 -2 0 -90 0 -90
-115 0 c-101 0 -117 -2 -135 -20 -15 -15 -17 -25 -11 -42 l8 -23 303 0 303 0
8 23 c6 17 4 27 -11 42 -18 18 -34 20 -135 20 l-115 0 0 90 0 90 263 2 262 3
0 400 0 400 -573 3 c-453 2 -574 0 -577 -10z m1065 -288 l0 -210 -490 0 -490
0 0 210 0 210 490 0 490 0 0 -210z m0 -360 l0 -60 -490 0 -490 0 0 60 0 60
490 0 490 0 0 -60z"/>
</g>
</svg>
