<?xml version="1.0" standalone="no"?>
<!DOCTYPE svg PUBLIC "-//W3C//DTD SVG 20010904//EN"
 "http://www.w3.org/TR/2001/REC-SVG-20010904/DTD/svg10.dtd">
<svg version="1.0" xmlns="http://www.w3.org/2000/svg"
 width="98.000000pt" height="116.000000pt" viewBox="0 0 98.000000 116.000000"
 preserveAspectRatio="xMidYMid meet">
<metadata>
Created by potrace 1.15, written by Peter Selinger 2001-2017
</metadata>
<g transform="translate(0.000000,116.000000) scale(0.100000,-0.100000)"
fill="#000000" stroke="none">
<path d="M426 1145 c-194 -54 -359 -220 -411 -415 -19 -71 -19 -229 0 -300 39
-146 160 -299 290 -367 133 -70 313 -84 453 -37 129 43 222 108 222 155 0 32
-4 35 -102 63 -69 20 -130 64 -180 130 -52 70 -71 139 -66 239 5 86 23 136 77
206 35 46 130 106 191 121 94 23 93 67 -2 129 -96 63 -197 91 -321 90 -56 0
-124 -7 -151 -14z m267 -90 c32 -8 72 -22 88 -31 l31 -16 -44 -21 c-23 -12
-69 -47 -101 -79 -152 -151 -177 -398 -58 -572 39 -56 121 -130 171 -153 22
-10 40 -21 40 -24 0 -4 -20 -16 -45 -28 -142 -67 -323 -52 -461 37 -263 170
-301 535 -79 757 122 122 298 172 458 130z"/>
</g>
</svg>
