<?xml version="1.0" standalone="no"?>
<!DOCTYPE svg PUBLIC "-//W3C//DTD SVG 20010904//EN"
 "http://www.w3.org/TR/2001/REC-SVG-20010904/DTD/svg10.dtd">
<svg version="1.0" xmlns="http://www.w3.org/2000/svg"
 width="100.000000pt" height="126.000000pt" viewBox="0 0 100.000000 126.000000"
 preserveAspectRatio="xMidYMid meet">
<metadata>
Created by potrace 1.15, written by Peter Selinger 2001-2017
</metadata>
<g transform="translate(0.000000,126.000000) scale(0.100000,-0.100000)"
fill="#000000" stroke="none">
<path d="M227 1253 c-4 -3 -7 -24 -7 -45 l0 -38 -93 0 c-59 0 -99 -5 -110 -12
-16 -12 -17 -56 -15 -583 l3 -570 495 0 495 0 3 570 c2 527 1 571 -15 583 -10
7 -49 12 -100 12 l-83 0 0 29 c0 64 15 61 -289 61 -153 0 -281 -3 -284 -7z
m483 -143 l0 -60 -200 0 -200 0 0 60 0 60 200 0 200 0 0 -60z m-490 -80 c0
-38 4 -52 19 -60 12 -6 117 -10 271 -10 154 0 259 4 271 10 15 8 19 22 19 60
l0 50 55 0 55 0 0 -495 0 -495 -410 0 -410 0 0 495 0 495 65 0 65 0 0 -50z"/>
<path d="M182 738 c-18 -18 -14 -56 7 -68 27 -14 615 -14 642 0 21 12 25 50 7
68 -17 17 -639 17 -656 0z"/>
<path d="M177 543 c-15 -14 -7 -63 12 -73 27 -14 615 -14 642 0 19 11 24 35
13 64 -5 14 -44 16 -333 16 -180 0 -331 -3 -334 -7z"/>
<path d="M186 347 c-12 -9 -17 -23 -14 -42 l3 -30 185 0 185 0 3 30 c6 49 -13
55 -188 55 -112 0 -161 -4 -174 -13z"/>
</g>
</svg>
