<?xml version="1.0" standalone="no"?>
<!DOCTYPE svg PUBLIC "-//W3C//DTD SVG 20010904//EN"
 "http://www.w3.org/TR/2001/REC-SVG-20010904/DTD/svg10.dtd">
<svg version="1.0" xmlns="http://www.w3.org/2000/svg"
 width="90.000000pt" height="116.000000pt" viewBox="0 0 90.000000 116.000000"
 preserveAspectRatio="xMidYMid meet">
<metadata>
Created by potrace 1.15, written by Peter Selinger 2001-2017
</metadata>
<g transform="translate(0.000000,116.000000) scale(0.100000,-0.100000)"
fill="#000000" stroke="none">
<path d="M7 1153 c-4 -3 -7 -171 -7 -373 0 -271 3 -369 12 -378 8 -8 67 -12
200 -12 l188 0 0 -176 c0 -102 4 -183 10 -195 14 -26 66 -26 80 0 6 12 10 93
10 195 l0 176 188 0 c103 0 193 4 200 8 9 7 12 90 10 383 l-3 374 -441 3
c-242 1 -444 -1 -447 -5z m193 -161 c0 -82 9 -102 45 -102 36 0 45 20 45 102
l0 78 54 0 54 0 4 -126 c3 -111 5 -127 22 -140 26 -18 32 -18 56 6 18 18 20
33 20 140 l0 120 55 0 55 0 0 -78 c0 -82 9 -102 45 -102 36 0 45 20 45 102 l0
78 55 0 55 0 0 -220 0 -220 -360 0 -360 0 0 220 0 220 55 0 55 0 0 -78z m610
-482 l0 -30 -360 0 -360 0 0 30 0 30 360 0 360 0 0 -30z"/>
</g>
</svg>
