<?xml version="1.0" standalone="no"?>
<!DOCTYPE svg PUBLIC "-//W3C//DTD SVG 20010904//EN"
 "http://www.w3.org/TR/2001/REC-SVG-20010904/DTD/svg10.dtd">
<svg version="1.0" xmlns="http://www.w3.org/2000/svg"
 width="116.000000pt" height="116.000000pt" viewBox="0 0 116.000000 116.000000"
 preserveAspectRatio="xMidYMid meet">
<metadata>
Created by potrace 1.15, written by Peter Selinger 2001-2017
</metadata>
<g transform="translate(0.000000,116.000000) scale(0.100000,-0.100000)"
fill="#000000" stroke="none">
<path d="M426 1145 c-194 -54 -359 -220 -411 -415 -19 -71 -19 -229 0 -300 52
-197 218 -363 415 -415 71 -19 229 -19 300 0 197 52 363 218 415 415 19 71 19
229 0 300 -52 197 -218 363 -415 415 -68 18 -237 18 -304 0z m295 -95 c209
-64 349 -253 349 -469 0 -137 -47 -250 -144 -347 -156 -155 -379 -189 -581
-87 -64 33 -165 134 -198 198 -122 243 -42 526 187 660 112 66 264 84 387 45z"/>
<path d="M453 889 l-23 -8 0 -295 c0 -276 1 -296 18 -305 27 -14 61 -2 67 23
3 11 4 144 3 295 -3 261 -4 274 -23 286 -13 9 -28 10 -42 4z"/>
<path d="M661 884 c-21 -15 -21 -21 -21 -297 0 -155 4 -287 8 -293 12 -18 42
-24 63 -14 19 10 19 23 17 307 -3 292 -3 296 -24 304 -14 5 -29 2 -43 -7z"/>
</g>
</svg>
