<?xml version="1.0" standalone="no"?>
<!DOCTYPE svg PUBLIC "-//W3C//DTD SVG 20010904//EN"
 "http://www.w3.org/TR/2001/REC-SVG-20010904/DTD/svg10.dtd">
<svg version="1.0" xmlns="http://www.w3.org/2000/svg"
 width="116.000000pt" height="116.000000pt" viewBox="0 0 116.000000 116.000000"
 preserveAspectRatio="xMidYMid meet">
<metadata>
Created by potrace 1.15, written by Peter Selinger 2001-2017
</metadata>
<g transform="translate(0.000000,116.000000) scale(0.100000,-0.100000)"
fill="#000000" stroke="none">
<path d="M5 1148 c-3 -7 -4 -267 -3 -578 l3 -565 575 0 575 0 0 575 0 575
-573 3 c-453 2 -574 0 -577 -10z m275 -298 l0 -220 -95 0 -95 0 0 220 0 220
95 0 95 0 0 -220z m790 0 l0 -220 -94 0 -94 0 -17 50 c-20 59 -91 142 -149
173 -34 18 -57 22 -136 22 -99 0 -137 -12 -187 -58 l-23 -20 0 136 0 137 350
0 350 0 0 -220z m-412 -76 c110 -45 162 -174 113 -279 -76 -165 -306 -165
-382 0 -78 167 99 351 269 279z m-362 -295 c23 -63 80 -130 142 -167 42 -24
56 -27 142 -27 79 0 102 4 136 22 58 31 129 114 149 173 l17 50 94 0 94 0 0
-220 0 -220 -490 0 -490 0 0 220 0 220 94 0 94 0 18 -51z"/>
<path d="M766 964 c-19 -18 -20 -28 -6 -55 9 -16 22 -19 88 -19 82 0 102 9
102 45 0 36 -20 45 -96 45 -53 0 -77 -4 -88 -16z"/>
<path d="M515 726 c-101 -44 -125 -178 -46 -257 65 -65 157 -65 222 0 124 124
-15 327 -176 257z"/>
</g>
</svg>
