<?xml version="1.0" standalone="no"?>
<!DOCTYPE svg PUBLIC "-//W3C//DTD SVG 20010904//EN"
 "http://www.w3.org/TR/2001/REC-SVG-20010904/DTD/svg10.dtd">
<svg version="1.0" xmlns="http://www.w3.org/2000/svg"
 width="92.000000pt" height="116.000000pt" viewBox="0 0 92.000000 116.000000"
 preserveAspectRatio="xMidYMid meet">
<metadata>
Created by potrace 1.15, written by Peter Selinger 2001-2017
</metadata>
<g transform="translate(0.000000,116.000000) scale(0.100000,-0.100000)"
fill="#000000" stroke="none">
<path d="M315 1142 c-77 -29 -107 -47 -162 -96 -63 -56 -107 -124 -134 -205
-17 -50 -20 -80 -17 -163 3 -91 7 -111 34 -169 60 -127 176 -281 328 -437 95
-97 100 -97 209 18 174 182 300 363 333 479 12 38 15 82 12 155 -3 92 -7 108
-40 176 -46 96 -129 177 -225 223 -62 29 -78 32 -178 34 -88 3 -120 0 -160
-15z m297 -104 c79 -37 142 -98 181 -177 26 -54 33 -79 36 -148 2 -56 -2 -97
-13 -130 -29 -88 -148 -254 -296 -413 l-60 -65 -55 60 c-110 119 -225 269
-266 349 -39 73 -43 89 -47 166 -3 70 0 95 18 143 39 105 111 179 216 223 82
34 203 31 286 -8z"/>
<path d="M380 881 c-40 -21 -80 -89 -80 -134 0 -47 37 -114 76 -138 45 -28
121 -29 166 -2 41 24 78 87 78 133 0 52 -38 120 -80 142 -45 23 -116 23 -160
-1z"/>
</g>
</svg>
