<?xml version="1.0" standalone="no"?>
<!DOCTYPE svg PUBLIC "-//W3C//DTD SVG 20010904//EN"
 "http://www.w3.org/TR/2001/REC-SVG-20010904/DTD/svg10.dtd">
<svg version="1.0" xmlns="http://www.w3.org/2000/svg"
 width="116.000000pt" height="116.000000pt" viewBox="0 0 116.000000 116.000000"
 preserveAspectRatio="xMidYMid meet">
<metadata>
Created by potrace 1.15, written by Peter Selinger 2001-2017
</metadata>
<g transform="translate(0.000000,116.000000) scale(0.100000,-0.100000)"
fill="#000000" stroke="none">
<path d="M540 1134 c-6 -14 -10 -144 -10 -295 0 -256 1 -270 20 -289 25 -25
35 -25 60 0 19 19 20 33 20 296 0 171 -4 283 -10 295 -16 30 -68 26 -80 -7z"/>
<path d="M390 1136 c-189 -71 -327 -219 -375 -403 -19 -73 -19 -232 0 -303 52
-197 218 -363 415 -415 71 -19 229 -19 300 0 197 52 363 218 415 415 19 71 19
230 0 303 -19 72 -63 158 -112 219 -77 95 -216 181 -316 194 -39 6 -46 4 -57
-15 -19 -36 -4 -58 53 -77 134 -43 246 -134 302 -245 82 -160 73 -348 -24
-495 -233 -357 -779 -270 -886 141 -66 254 83 521 333 595 51 16 64 30 60 67
-3 24 -8 28 -38 30 -19 1 -51 -4 -70 -11z"/>
</g>
</svg>
