<?xml version="1.0" standalone="no"?>
<!DOCTYPE svg PUBLIC "-//W3C//DTD SVG 20010904//EN"
 "http://www.w3.org/TR/2001/REC-SVG-20010904/DTD/svg10.dtd">
<svg version="1.0" xmlns="http://www.w3.org/2000/svg"
 width="116.000000pt" height="116.000000pt" viewBox="0 0 116.000000 116.000000"
 preserveAspectRatio="xMidYMid meet">
<metadata>
Created by potrace 1.15, written by Peter Selinger 2001-2017
</metadata>
<g transform="translate(0.000000,116.000000) scale(0.100000,-0.100000)"
fill="#000000" stroke="none">
<path d="M7 1153 c-13 -12 -8 -268 5 -281 7 -7 29 -12 50 -12 l38 0 0 -243 c0
-176 3 -246 12 -255 7 -7 44 -12 95 -12 l82 0 -94 -147 c-52 -81 -95 -155 -95
-164 0 -23 25 -41 52 -37 24 3 39 24 175 236 l72 112 180 0 180 0 112 -175
c99 -155 115 -175 138 -175 30 0 51 16 51 39 0 9 -43 81 -94 161 l-94 145 81
3 c45 2 87 8 94 14 10 8 13 66 13 254 l0 244 39 0 c21 0 44 6 50 14 8 9 11 57
9 147 l-3 134 -571 3 c-314 1 -574 -1 -577 -5z m1063 -143 l0 -60 -490 0 -490
0 0 60 0 60 490 0 490 0 0 -60z m-100 -360 l0 -210 -390 0 -390 0 0 210 0 210
390 0 390 0 0 -210z"/>
<path d="M599 728 c-34 -40 -68 -74 -75 -76 -7 -2 -36 4 -65 12 -76 23 -85 21
-140 -31 -53 -49 -69 -84 -49 -108 21 -26 62 -18 101 21 l36 35 63 -16 c34 -9
72 -15 85 -13 28 4 175 174 175 204 0 26 -18 44 -47 44 -15 0 -41 -22 -84 -72z"/>
</g>
</svg>
