<?xml version="1.0" standalone="no"?>
<!DOCTYPE svg PUBLIC "-//W3C//DTD SVG 20010904//EN"
 "http://www.w3.org/TR/2001/REC-SVG-20010904/DTD/svg10.dtd">
<svg version="1.0" xmlns="http://www.w3.org/2000/svg"
 width="116.000000pt" height="116.000000pt" viewBox="0 0 116.000000 116.000000"
 preserveAspectRatio="xMidYMid meet">
<metadata>
Created by potrace 1.15, written by Peter Selinger 2001-2017
</metadata>
<g transform="translate(0.000000,116.000000) scale(0.100000,-0.100000)"
fill="#000000" stroke="none">
<path d="M270 1134 c-6 -14 -10 -52 -10 -85 l0 -59 -118 0 c-78 0 -122 -4
-130 -12 -17 -17 -17 -779 0 -796 8 -8 52 -12 130 -12 l118 0 0 -59 c0 -33 4
-71 10 -85 l10 -26 300 0 300 0 10 26 c6 14 10 52 10 85 l0 59 118 0 c78 0
122 4 130 12 17 17 17 779 0 796 -8 8 -52 12 -130 12 l-118 0 0 59 c0 33 -4
71 -10 85 l-10 26 -300 0 -300 0 -10 -26z m530 -104 l0 -40 -220 0 -220 0 0
40 0 40 220 0 220 0 0 -40z m270 -450 l0 -320 -85 0 -85 0 0 75 0 75 34 0 c47
0 81 29 73 62 -4 15 -16 28 -29 32 -13 3 -194 6 -403 6 -328 0 -384 -2 -403
-16 -47 -33 -11 -84 60 -84 l38 0 0 -75 0 -75 -90 0 -90 0 0 320 0 320 490 0
490 0 0 -320z m-270 -330 l0 -160 -220 0 -220 0 0 160 0 160 220 0 220 0 0
-160z"/>
<path d="M766 764 c-19 -18 -21 -45 -4 -62 7 -7 42 -12 88 -12 78 0 100 9 100
41 0 35 -28 49 -100 49 -49 0 -73 -4 -84 -16z"/>
</g>
</svg>
