<?xml version="1.0" standalone="no"?>
<!DOCTYPE svg PUBLIC "-//W3C//DTD SVG 20010904//EN"
 "http://www.w3.org/TR/2001/REC-SVG-20010904/DTD/svg10.dtd">
<svg version="1.0" xmlns="http://www.w3.org/2000/svg"
 width="122.000000pt" height="116.000000pt" viewBox="0 0 122.000000 116.000000"
 preserveAspectRatio="xMidYMid meet">
<metadata>
Created by potrace 1.15, written by Peter Selinger 2001-2017
</metadata>
<g transform="translate(0.000000,116.000000) scale(0.100000,-0.100000)"
fill="#000000" stroke="none">
<path d="M499 1146 c-83 -29 -147 -86 -191 -169 -20 -36 -23 -57 -23 -142 0
-85 3 -106 23 -143 78 -147 241 -218 399 -173 100 28 187 118 219 229 46 158
-42 334 -196 393 -59 22 -176 25 -231 5z m182 -90 c134 -48 196 -198 134 -323
-58 -115 -187 -162 -300 -109 -64 29 -110 82 -130 148 -19 63 -19 63 0 126 38
127 177 201 296 158z"/>
<path d="M320 446 c-124 -28 -230 -112 -284 -226 -26 -55 -31 -77 -31 -140 l0
-75 605 0 605 0 0 75 c-1 62 -6 86 -31 140 -55 118 -169 205 -299 229 -80 15
-495 13 -565 -3z m626 -118 c65 -34 120 -90 150 -153 44 -93 92 -85 -486 -85
-574 0 -529 -7 -491 77 37 80 124 156 211 184 14 4 147 7 295 6 l270 -2 51
-27z"/>
</g>
</svg>
