<?xml version="1.0" standalone="no"?>
<!DOCTYPE svg PUBLIC "-//W3C//DTD SVG 20010904//EN"
 "http://www.w3.org/TR/2001/REC-SVG-20010904/DTD/svg10.dtd">
<svg version="1.0" xmlns="http://www.w3.org/2000/svg"
 width="116.000000pt" height="116.000000pt" viewBox="0 0 116.000000 116.000000"
 preserveAspectRatio="xMidYMid meet">
<metadata>
Created by potrace 1.15, written by Peter Selinger 2001-2017
</metadata>
<g transform="translate(0.000000,116.000000) scale(0.100000,-0.100000)"
fill="#000000" stroke="none">
<path d="M426 1145 c-194 -54 -359 -220 -411 -415 -19 -71 -19 -229 0 -300 52
-197 218 -363 415 -415 71 -19 229 -19 300 0 197 52 363 218 415 415 19 71 19
229 0 300 -52 197 -218 363 -415 415 -68 18 -237 18 -304 0z m294 -94 c57 -18
170 -78 170 -91 0 -3 -155 -160 -344 -349 l-344 -344 -31 43 c-76 105 -103
276 -63 407 50 164 182 294 343 337 78 21 195 20 269 -3z m287 -228 c136 -233
46 -545 -194 -676 -149 -80 -347 -75 -488 14 -27 17 -52 33 -55 36 -2 2 151
159 340 348 273 273 347 342 358 333 7 -6 25 -31 39 -55z"/>
</g>
</svg>
