<?xml version="1.0" standalone="no"?>
<!DOCTYPE svg PUBLIC "-//W3C//DTD SVG 20010904//EN"
 "http://www.w3.org/TR/2001/REC-SVG-20010904/DTD/svg10.dtd">
<svg version="1.0" xmlns="http://www.w3.org/2000/svg"
 width="116.000000pt" height="116.000000pt" viewBox="0 0 116.000000 116.000000"
 preserveAspectRatio="xMidYMid meet">
<metadata>
Created by potrace 1.15, written by Peter Selinger 2001-2017
</metadata>
<g transform="translate(0.000000,116.000000) scale(0.100000,-0.100000)"
fill="#000000" stroke="none">
<path d="M277 882 c-215 -215 -277 -283 -277 -302 0 -37 544 -580 581 -580 19
0 50 25 122 99 53 54 97 105 97 114 0 22 -28 47 -53 47 -59 0 -120 71 -120
141 0 77 78 146 154 136 70 -9 104 -48 135 -154 2 -7 16 -13 31 -13 39 0 213
173 213 211 0 17 -18 43 -59 83 l-60 59 27 21 c69 54 96 116 90 209 -7 119
-86 198 -205 205 -83 6 -139 -16 -191 -72 l-40 -43 -58 58 c-41 41 -66 59 -84
59 -20 0 -85 -60 -303 -278z m727 169 c80 -53 89 -160 18 -224 -11 -10 -40
-24 -64 -31 -36 -11 -44 -18 -46 -41 -3 -23 9 -40 69 -101 l73 -74 -38 -39
-39 -40 -21 32 c-38 56 -96 88 -169 94 -58 5 -73 2 -121 -21 -87 -43 -128
-109 -128 -208 0 -85 52 -178 114 -201 9 -3 -2 -20 -30 -48 l-42 -44 -238 238
-237 237 237 237 238 238 73 -73 c62 -61 79 -73 102 -70 23 2 30 10 40 46 7
23 19 50 27 59 43 52 129 68 182 34z"/>
</g>
</svg>
