<?xml version="1.0" standalone="no"?>
<!DOCTYPE svg PUBLIC "-//W3C//DTD SVG 20010904//EN"
 "http://www.w3.org/TR/2001/REC-SVG-20010904/DTD/svg10.dtd">
<svg version="1.0" xmlns="http://www.w3.org/2000/svg"
 width="116.000000pt" height="116.000000pt" viewBox="0 0 116.000000 116.000000"
 preserveAspectRatio="xMidYMid meet">
<metadata>
Created by potrace 1.15, written by Peter Selinger 2001-2017
</metadata>
<g transform="translate(0.000000,116.000000) scale(0.100000,-0.100000)"
fill="#000000" stroke="none">
<path d="M426 1145 c-194 -54 -359 -220 -411 -415 -19 -71 -19 -229 0 -300 27
-101 74 -180 154 -261 120 -120 239 -169 411 -169 172 0 291 49 411 169 111
111 169 240 169 379 0 56 -2 64 -22 71 -13 5 -31 5 -40 0 -19 -10 -20 -14 -36
-123 -35 -230 -243 -406 -482 -406 -272 0 -490 218 -490 490 0 369 388 603
720 435 60 -30 140 -103 179 -162 17 -25 31 -50 31 -55 0 -4 -67 -8 -148 -8
-102 0 -152 -4 -160 -12 -18 -18 -14 -56 7 -68 12 -6 101 -10 219 -10 157 0
202 3 211 14 8 9 11 78 9 227 l-3 214 -30 3 c-46 6 -55 -17 -55 -140 l0 -109
-57 62 c-120 130 -259 190 -436 188 -56 0 -124 -7 -151 -14z"/>
</g>
</svg>
