<?xml version="1.0" standalone="no"?>
<!DOCTYPE svg PUBLIC "-//W3C//DTD SVG 20010904//EN"
 "http://www.w3.org/TR/2001/REC-SVG-20010904/DTD/svg10.dtd">
<svg version="1.0" xmlns="http://www.w3.org/2000/svg"
 width="58.000000pt" height="62.000000pt" viewBox="0 0 58.000000 62.000000"
 preserveAspectRatio="xMidYMid meet">
<metadata>
Created by potrace 1.15, written by Peter Selinger 2001-2017
</metadata>
<g transform="translate(0.000000,62.000000) scale(0.100000,-0.100000)"
fill="#000000" stroke="none">
<path d="M138 479 c-106 -112 -133 -146 -133 -169 0 -22 27 -56 133 -169 112
-118 138 -141 163 -141 38 0 49 24 49 102 l0 63 84 -84 c71 -71 87 -82 112
-79 l29 3 0 305 0 305 -29 3 c-25 3 -41 -8 -112 -79 l-84 -84 0 63 c0 79 -11
102 -50 102 -24 0 -50 -23 -162 -141z m122 -171 l0 -153 -77 77 -78 78 75 75
c41 41 76 75 77 75 2 0 3 -69 3 -152z m228 -73 l-3 -76 -68 76 -68 75 68 75
68 76 3 -76 c2 -41 2 -109 0 -150z"/>
</g>
</svg>
