<?xml version="1.0" standalone="no"?>
<!DOCTYPE svg PUBLIC "-//W3C//DTD SVG 20010904//EN"
 "http://www.w3.org/TR/2001/REC-SVG-20010904/DTD/svg10.dtd">
<svg version="1.0" xmlns="http://www.w3.org/2000/svg"
 width="80.000000pt" height="116.000000pt" viewBox="0 0 80.000000 116.000000"
 preserveAspectRatio="xMidYMid meet">
<metadata>
Created by potrace 1.15, written by Peter Selinger 2001-2017
</metadata>
<g transform="translate(0.000000,116.000000) scale(0.100000,-0.100000)"
fill="#000000" stroke="none">
<path d="M343 1128 c-150 -158 -252 -370 -258 -536 -3 -70 -7 -89 -29 -120
-45 -65 -56 -106 -56 -200 0 -90 8 -112 41 -112 36 0 49 28 49 103 1 40 6 85
13 101 l13 29 19 -44 c33 -76 38 -79 132 -79 l83 0 0 -33 c0 -39 24 -77 50
-77 30 0 50 28 50 71 l0 39 91 0 90 0 28 61 c27 60 27 60 39 34 7 -14 12 -59
12 -100 0 -77 13 -105 49 -105 33 0 41 22 41 115 0 73 -4 99 -24 140 -13 28
-32 58 -43 68 -16 14 -19 26 -15 66 6 68 -14 172 -50 259 -36 86 -125 225
-192 300 -58 63 -87 68 -133 20z m125 -166 c119 -160 172 -313 152 -437 -6
-36 -19 -87 -29 -113 l-19 -47 -61 -3 -61 -3 0 31 c0 47 -16 70 -50 70 -34 0
-50 -23 -50 -69 l0 -31 -59 0 -60 0 -22 58 c-13 34 -24 89 -27 138 -5 97 11
164 69 274 44 83 133 210 149 210 6 0 36 -35 68 -78z"/>
<path d="M331 828 c-58 -31 -83 -77 -78 -144 6 -84 63 -138 148 -138 191 0
207 275 17 300 -34 4 -53 0 -87 -18z"/>
<path d="M134 207 c-3 -8 -3 -56 -2 -108 l3 -94 28 -3 c47 -6 57 12 57 100 0
44 -5 88 -10 99 -12 22 -68 27 -76 6z"/>
<path d="M591 201 c-6 -11 -11 -55 -11 -99 0 -88 10 -106 57 -100 l28 3 0 105
0 105 -32 3 c-23 2 -34 -2 -42 -17z"/>
</g>
</svg>
