<?xml version="1.0" standalone="no"?>
<!DOCTYPE svg PUBLIC "-//W3C//DTD SVG 20010904//EN"
 "http://www.w3.org/TR/2001/REC-SVG-20010904/DTD/svg10.dtd">
<svg version="1.0" xmlns="http://www.w3.org/2000/svg"
 width="116.000000pt" height="116.000000pt" viewBox="0 0 116.000000 116.000000"
 preserveAspectRatio="xMidYMid meet">
<metadata>
Created by potrace 1.15, written by Peter Selinger 2001-2017
</metadata>
<g transform="translate(0.000000,116.000000) scale(0.100000,-0.100000)"
fill="#000000" stroke="none">
<path d="M7 1153 c-13 -12 -8 -498 5 -511 9 -9 78 -12 249 -12 203 0 240 2
253 16 14 13 16 50 16 253 0 171 -3 240 -12 249 -13 13 -499 18 -511 5z m433
-258 l0 -175 -175 0 -175 0 0 175 0 175 175 0 175 0 0 -175z"/>
<path d="M642 1148 c-9 -9 -12 -76 -12 -249 0 -203 2 -240 16 -253 13 -14 50
-16 253 -16 190 0 241 3 250 14 8 9 11 87 9 262 l-3 249 -250 3 c-187 2 -254
-1 -263 -10z m428 -253 l0 -175 -175 0 -175 0 0 175 0 175 175 0 175 0 0 -175z"/>
<path d="M22 400 c-29 -12 -31 -65 -3 -80 27 -14 1095 -14 1122 0 19 11 27 64
12 73 -17 10 -1109 17 -1131 7z"/>
<path d="M11 76 c-7 -8 -11 -27 -9 -43 l3 -28 575 0 575 0 3 30 c7 56 18 55
-584 55 -468 0 -553 -2 -563 -14z"/>
</g>
</svg>
