<?xml version="1.0" standalone="no"?>
<!DOCTYPE svg PUBLIC "-//W3C//DTD SVG 20010904//EN"
 "http://www.w3.org/TR/2001/REC-SVG-20010904/DTD/svg10.dtd">
<svg version="1.0" xmlns="http://www.w3.org/2000/svg"
 width="116.000000pt" height="116.000000pt" viewBox="0 0 116.000000 116.000000"
 preserveAspectRatio="xMidYMid meet">
<metadata>
Created by potrace 1.15, written by Peter Selinger 2001-2017
</metadata>
<g transform="translate(0.000000,116.000000) scale(0.100000,-0.100000)"
fill="#000000" stroke="none">
<path d="M294 1137 c-128 -49 -232 -156 -274 -283 -19 -55 -22 -82 -18 -167 3
-88 8 -111 34 -167 118 -250 427 -343 657 -197 l49 30 177 -177 c159 -158 181
-177 207 -174 24 2 30 8 32 32 3 26 -16 48 -174 207 l-177 177 30 49 c87 141
93 297 18 450 -43 87 -122 163 -215 207 -58 28 -76 31 -175 33 -95 3 -118 0
-171 -20z m308 -99 c180 -83 262 -308 177 -486 -29 -60 -111 -142 -171 -171
-178 -85 -402 -4 -486 177 -23 49 -27 70 -27 152 0 114 18 163 91 240 86 92
156 121 279 117 60 -2 94 -10 137 -29z"/>
</g>
</svg>
