<?xml version="1.0" standalone="no"?>
<!DOCTYPE svg PUBLIC "-//W3C//DTD SVG 20010904//EN"
 "http://www.w3.org/TR/2001/REC-SVG-20010904/DTD/svg10.dtd">
<svg version="1.0" xmlns="http://www.w3.org/2000/svg"
 width="116.000000pt" height="116.000000pt" viewBox="0 0 116.000000 116.000000"
 preserveAspectRatio="xMidYMid meet">
<metadata>
Created by potrace 1.15, written by Peter Selinger 2001-2017
</metadata>
<g transform="translate(0.000000,116.000000) scale(0.100000,-0.100000)"
fill="#000000" stroke="none">
<path d="M72 1140 c-97 -59 -97 -211 0 -270 l33 -20 5 -422 5 -423 28 -3 c58
-7 57 -17 57 433 l0 413 35 21 c49 29 75 75 75 136 0 93 -62 155 -155 155 -32
0 -62 -7 -83 -20z"/>
<path d="M541 1141 c-7 -12 -11 -100 -11 -230 l0 -210 -29 -16 c-101 -52 -105
-218 -6 -271 l35 -19 0 -180 c0 -201 5 -219 55 -213 l30 3 3 192 2 193 29 14
c66 34 100 107 87 181 -8 42 -58 103 -92 111 l-24 6 -2 227 -3 226 -32 3 c-23
2 -34 -2 -42 -17z"/>
<path d="M966 1144 c-3 -9 -6 -200 -6 -425 l0 -409 -22 -9 c-13 -5 -36 -23
-53 -40 -25 -27 -30 -41 -33 -94 -2 -49 1 -69 17 -95 62 -97 210 -97 272 0 16
26 19 46 17 95 -3 53 -8 67 -33 94 -17 17 -40 35 -52 40 l-23 9 0 409 c0 225
-3 416 -6 425 -4 10 -18 16 -39 16 -21 0 -35 -6 -39 -16z"/>
</g>
</svg>
