<?xml version="1.0" standalone="no"?>
<!DOCTYPE svg PUBLIC "-//W3C//DTD SVG 20010904//EN"
 "http://www.w3.org/TR/2001/REC-SVG-20010904/DTD/svg10.dtd">
<svg version="1.0" xmlns="http://www.w3.org/2000/svg"
 width="116.000000pt" height="30.000000pt" viewBox="0 0 116.000000 30.000000"
 preserveAspectRatio="xMidYMid meet">
<metadata>
Created by potrace 1.15, written by Peter Selinger 2001-2017
</metadata>
<g transform="translate(0.000000,30.000000) scale(0.100000,-0.100000)"
fill="#000000" stroke="none">
<path d="M704 290 c-22 -9 -74 -65 -74 -81 0 -5 -124 -9 -303 -9 -222 0 -306
-3 -315 -12 -7 -7 -12 -25 -12 -40 0 -21 6 -31 26 -38 14 -6 151 -10 314 -10
277 0 289 -1 295 -19 3 -11 22 -34 41 -50 30 -27 42 -31 94 -31 52 0 64 4 94
31 19 16 38 39 41 50 6 17 16 19 105 19 121 0 150 9 150 48 0 47 -14 52 -136
52 -103 0 -113 2 -119 19 -3 11 -22 34 -41 50 -30 26 -42 31 -87 30 -29 0 -61
-4 -73 -9z"/>
</g>
</svg>
