<?xml version="1.0" standalone="no"?>
<!DOCTYPE svg PUBLIC "-//W3C//DTD SVG 20010904//EN"
 "http://www.w3.org/TR/2001/REC-SVG-20010904/DTD/svg10.dtd">
<svg version="1.0" xmlns="http://www.w3.org/2000/svg"
 width="116.000000pt" height="116.000000pt" viewBox="0 0 116.000000 116.000000"
 preserveAspectRatio="xMidYMid meet">
<metadata>
Created by potrace 1.15, written by Peter Selinger 2001-2017
</metadata>
<g transform="translate(0.000000,116.000000) scale(0.100000,-0.100000)"
fill="#000000" stroke="none">
<path d="M460 1141 c-5 -11 -10 -35 -10 -55 0 -32 -4 -36 -52 -59 l-53 -24
-33 29 c-49 42 -69 37 -145 -40 -75 -75 -80 -95 -41 -141 l25 -30 -22 -60 -21
-60 -52 -3 -51 -3 -3 -110 c-3 -125 2 -135 70 -135 33 0 40 -4 48 -27 6 -16
17 -41 26 -56 16 -28 15 -30 -15 -61 -17 -18 -31 -41 -31 -52 0 -27 129 -154
158 -154 12 0 36 13 53 28 l32 29 58 -26 58 -25 3 -51 3 -50 110 -3 c125 -3
135 2 135 72 0 41 1 41 58 63 l57 22 30 -29 c46 -45 69 -39 142 33 73 73 79
99 35 148 l-28 32 20 53 c20 52 22 54 59 54 73 0 77 7 77 130 0 123 -4 130
-77 130 -37 0 -39 2 -59 54 l-20 53 28 32 c44 49 38 71 -39 146 -38 35 -77 65
-88 65 -10 0 -33 -14 -50 -30 l-31 -30 -57 25 c-54 23 -57 27 -57 61 0 70 -7
74 -130 74 -98 0 -110 -2 -120 -19z m150 -106 c0 -39 28 -75 59 -75 10 0 45
-13 77 -30 72 -37 103 -38 134 -5 l24 25 23 -21 22 -22 -29 -34 c-36 -41 -36
-43 -6 -96 13 -23 31 -66 41 -95 18 -56 36 -72 84 -72 28 0 31 -3 31 -30 0
-27 -3 -30 -34 -30 -44 0 -70 -24 -85 -80 -7 -25 -24 -64 -37 -87 -30 -53 -30
-55 6 -96 l29 -34 -23 -22 -23 -21 -19 21 c-38 42 -49 42 -126 4 -39 -19 -80
-35 -90 -35 -30 0 -58 -36 -58 -75 0 -32 -2 -35 -30 -35 -28 0 -30 3 -30 35 0
38 -28 75 -58 75 -10 0 -50 16 -91 35 -40 19 -74 35 -76 35 -3 0 -20 -13 -38
-30 l-34 -29 -22 22 -21 23 25 24 c29 27 32 65 9 98 -8 12 -26 53 -38 90 l-23
67 -46 3 c-46 3 -47 4 -47 38 0 33 1 34 39 34 47 0 53 7 81 89 12 36 28 74 36
85 21 31 17 70 -11 96 l-25 24 22 23 22 23 26 -25 c34 -32 54 -32 132 5 34 16
71 30 81 30 29 0 57 37 57 75 0 32 2 35 30 35 28 0 30 -3 30 -35z"/>
<path d="M489 845 c-60 -19 -134 -85 -166 -149 -21 -40 -26 -66 -26 -121 -1
-118 51 -203 155 -254 111 -56 242 -36 327 50 109 109 109 303 0 406 -78 72
-193 99 -290 68z m183 -106 c83 -43 122 -163 80 -246 -60 -116 -197 -147 -292
-66 -23 20 -49 52 -56 70 -33 77 -6 177 58 227 65 48 134 54 210 15z"/>
</g>
</svg>
