<?xml version="1.0" standalone="no"?>
<!DOCTYPE svg PUBLIC "-//W3C//DTD SVG 20010904//EN"
 "http://www.w3.org/TR/2001/REC-SVG-20010904/DTD/svg10.dtd">
<svg version="1.0" xmlns="http://www.w3.org/2000/svg"
 width="74.000000pt" height="116.000000pt" viewBox="0 0 74.000000 116.000000"
 preserveAspectRatio="xMidYMid meet">
<metadata>
Created by potrace 1.15, written by Peter Selinger 2001-2017
</metadata>
<g transform="translate(0.000000,116.000000) scale(0.100000,-0.100000)"
fill="#000000" stroke="none">
<path d="M504 1141 c-66 -40 -95 -111 -74 -181 l11 -35 -102 -97 -102 -97 -57
6 c-68 7 -130 -20 -160 -70 -27 -44 -27 -128 0 -173 36 -58 139 -91 192 -63
19 10 32 0 124 -92 l104 -104 -10 -35 c-31 -103 46 -200 157 -200 91 0 153 63
153 156 0 109 -91 176 -205 150 -28 -6 -37 1 -132 96 l-103 103 12 37 c7 25 8
48 1 76 l-10 40 101 101 102 102 40 -9 c106 -23 194 46 194 153 0 93 -62 155
-155 155 -31 0 -62 -7 -81 -19z"/>
</g>
</svg>
