<?xml version="1.0" standalone="no"?>
<!DOCTYPE svg PUBLIC "-//W3C//DTD SVG 20010904//EN"
 "http://www.w3.org/TR/2001/REC-SVG-20010904/DTD/svg10.dtd">
<svg version="1.0" xmlns="http://www.w3.org/2000/svg"
 width="116.000000pt" height="116.000000pt" viewBox="0 0 116.000000 116.000000"
 preserveAspectRatio="xMidYMid meet">
<metadata>
Created by potrace 1.15, written by Peter Selinger 2001-2017
</metadata>
<g transform="translate(0.000000,116.000000) scale(0.100000,-0.100000)"
fill="#000000" stroke="none">
<path d="M496 1110 c-134 -117 -269 -185 -426 -213 l-65 -12 -3 -163 c-2 -156
-2 -164 23 -216 50 -105 128 -212 229 -311 84 -84 117 -108 194 -148 121 -61
143 -61 264 0 77 40 110 64 194 148 101 99 179 206 229 311 25 52 25 60 23
216 l-3 163 -65 12 c-155 28 -294 97 -431 215 -35 29 -66 48 -81 48 -15 0 -47
-19 -82 -50z m166 -121 c101 -75 238 -143 335 -167 l73 -17 0 -110 c0 -104 -2
-113 -31 -170 -97 -185 -249 -340 -403 -411 l-56 -25 -56 25 c-153 70 -292
211 -393 396 -41 75 -41 75 -41 185 l0 110 73 17 c93 23 253 103 342 172 39
30 71 55 72 55 2 1 40 -27 85 -60z"/>
</g>
</svg>
