<?xml version="1.0" standalone="no"?>
<!DOCTYPE svg PUBLIC "-//W3C//DTD SVG 20010904//EN"
 "http://www.w3.org/TR/2001/REC-SVG-20010904/DTD/svg10.dtd">
<svg version="1.0" xmlns="http://www.w3.org/2000/svg"
 width="116.000000pt" height="116.000000pt" viewBox="0 0 116.000000 116.000000"
 preserveAspectRatio="xMidYMid meet">
<metadata>
Created by potrace 1.15, written by Peter Selinger 2001-2017
</metadata>
<g transform="translate(0.000000,116.000000) scale(0.100000,-0.100000)"
fill="#000000" stroke="none">
<path d="M405 1136 c-39 -12 -92 -35 -118 -50 -112 -66 -215 -190 -258 -311
-27 -76 -37 -243 -19 -324 44 -203 217 -382 420 -436 71 -19 229 -19 300 0
196 52 363 219 415 415 19 71 19 229 0 300 -52 196 -219 363 -415 415 -86 23
-241 19 -325 -9z m302 -80 c4 -4 -84 -98 -195 -209 l-202 -202 -81 81 -81 81
17 32 c44 86 190 193 301 220 42 11 230 8 241 -3z m166 -86 c64 -46 134 -138
168 -220 19 -46 23 -74 23 -172 1 -64 -2 -120 -6 -124 -5 -4 -99 82 -211 192
l-204 199 81 83 c44 45 83 82 87 82 3 0 31 -18 62 -40z m-193 -495 l-100 -100
-102 102 -103 103 100 100 100 100 102 -102 103 -103 -100 -100z m-250 -249
c-78 -79 -79 -80 -107 -65 -46 23 -149 131 -176 184 -52 103 -69 216 -50 328
l6 39 203 -203 204 -204 -80 -79z m544 165 c38 -39 39 -42 25 -67 -26 -49 -93
-117 -154 -156 -90 -59 -176 -81 -290 -76 -52 2 -98 7 -102 11 -4 4 82 97 192
207 l199 199 45 -39 c25 -21 64 -57 85 -79z"/>
</g>
</svg>
