<?xml version="1.0" standalone="no"?>
<!DOCTYPE svg PUBLIC "-//W3C//DTD SVG 20010904//EN"
 "http://www.w3.org/TR/2001/REC-SVG-20010904/DTD/svg10.dtd">
<svg version="1.0" xmlns="http://www.w3.org/2000/svg"
 width="116.000000pt" height="116.000000pt" viewBox="0 0 116.000000 116.000000"
 preserveAspectRatio="xMidYMid meet">
<metadata>
Created by potrace 1.15, written by Peter Selinger 2001-2017
</metadata>
<g transform="translate(0.000000,116.000000) scale(0.100000,-0.100000)"
fill="#000000" stroke="none">
<path d="M426 1145 c-97 -27 -177 -76 -256 -154 -121 -119 -170 -239 -170
-411 0 -172 49 -291 169 -411 120 -120 239 -169 411 -169 172 0 291 49 411
169 83 83 137 178 159 282 18 82 9 250 -18 323 -61 168 -190 296 -358 358 -75
28 -272 35 -348 13z m104 -128 c0 -58 20 -97 50 -97 30 0 50 39 50 98 l0 54
37 -7 c60 -11 138 -44 183 -76 l42 -31 -41 -42 c-42 -42 -51 -72 -29 -94 22
-22 54 -12 93 28 21 22 42 40 45 40 22 0 110 -197 110 -246 0 -12 -30 -14
-172 -14 l-173 1 -21 33 -21 34 53 122 c30 68 54 133 54 145 0 30 -24 49 -54
41 -19 -5 -34 -31 -82 -141 -57 -130 -60 -135 -89 -135 -39 0 -92 -33 -113
-70 l-17 -30 -172 0 c-142 0 -173 3 -173 14 0 49 88 246 110 246 3 0 24 -18
45 -40 39 -40 71 -50 93 -28 22 22 12 53 -28 93 -45 44 -43 50 27 92 45 26
144 61 176 62 14 1 17 -8 17 -52z m-78 -517 c53 -93 203 -93 256 0 l17 30 173
0 173 0 -7 -37 c-43 -233 -247 -403 -484 -403 -170 0 -317 80 -411 224 -35 54
-79 166 -79 202 0 11 32 14 173 14 l172 0 17 -30z"/>
</g>
</svg>
