<?xml version="1.0" standalone="no"?>
<!DOCTYPE svg PUBLIC "-//W3C//DTD SVG 20010904//EN"
 "http://www.w3.org/TR/2001/REC-SVG-20010904/DTD/svg10.dtd">
<svg version="1.0" xmlns="http://www.w3.org/2000/svg"
 width="116.000000pt" height="98.000000pt" viewBox="0 0 116.000000 98.000000"
 preserveAspectRatio="xMidYMid meet">
<metadata>
Created by potrace 1.15, written by Peter Selinger 2001-2017
</metadata>
<g transform="translate(0.000000,98.000000) scale(0.100000,-0.100000)"
fill="#000000" stroke="none">
<path d="M7 973 c-4 -3 -7 -180 -7 -393 0 -287 3 -389 12 -398 7 -7 41 -12 85
-12 l72 0 3 -82 3 -83 31 -3 c26 -3 50 11 144 82 l112 86 337 0 c185 0 342 4
349 8 9 7 12 94 10 403 l-3 394 -571 3 c-314 1 -574 -1 -577 -5z m1063 -398
l0 -315 -324 0 -323 0 -79 -61 -79 -61 -3 48 c-5 68 -12 74 -98 74 l-74 0 0
315 0 315 490 0 490 0 0 -315z"/>
<path d="M252 708 c-15 -15 -15 -51 0 -66 17 -17 639 -17 656 0 15 15 15 51 0
66 -17 17 -639 17 -656 0z"/>
<path d="M252 508 c-17 -17 -15 -44 4 -62 13 -14 57 -16 324 -16 267 0 311 2
324 16 19 18 21 45 4 62 -17 17 -639 17 -656 0z"/>
</g>
</svg>
