<?xml version="1.0" standalone="no"?>
<!DOCTYPE svg PUBLIC "-//W3C//DTD SVG 20010904//EN"
 "http://www.w3.org/TR/2001/REC-SVG-20010904/DTD/svg10.dtd">
<svg version="1.0" xmlns="http://www.w3.org/2000/svg"
 width="116.000000pt" height="116.000000pt" viewBox="0 0 116.000000 116.000000"
 preserveAspectRatio="xMidYMid meet">
<metadata>
Created by potrace 1.15, written by Peter Selinger 2001-2017
</metadata>
<g transform="translate(0.000000,116.000000) scale(0.100000,-0.100000)"
fill="#000000" stroke="none">
<path d="M5 1148 c-3 -7 -4 -267 -3 -578 l3 -565 575 0 575 0 3 30 c7 56 15
55 -550 55 l-518 0 0 516 c0 336 -4 522 -10 535 -12 22 -68 27 -75 7z"/>
<path d="M200 851 c-6 -12 -10 -132 -10 -320 0 -288 1 -302 20 -321 11 -11 24
-20 30 -20 5 0 19 9 30 20 19 19 20 33 20 321 0 188 -4 308 -10 320 -7 12 -21
19 -40 19 -19 0 -33 -7 -40 -19z"/>
<path d="M402 858 c-9 -9 -12 -89 -12 -325 l0 -313 24 -15 c19 -13 29 -14 45
-5 21 11 21 16 19 338 l-3 327 -30 3 c-17 2 -36 -3 -43 -10z"/>
<path d="M797 863 c-4 -3 -7 -152 -7 -329 0 -309 1 -324 19 -334 21 -10 51 -4
63 14 14 20 9 631 -4 644 -13 13 -60 16 -71 5z"/>
<path d="M602 568 c-13 -13 -17 -335 -4 -354 11 -17 35 -22 60 -13 22 8 22 11
22 182 0 182 -4 197 -45 197 -12 0 -26 -5 -33 -12z"/>
<path d="M1002 568 c-8 -8 -12 -64 -12 -185 0 -160 1 -173 19 -183 24 -12 48
-4 61 21 6 10 10 87 10 173 0 127 -3 157 -16 170 -18 19 -45 21 -62 4z"/>
</g>
</svg>
