<?xml version="1.0" standalone="no"?>
<!DOCTYPE svg PUBLIC "-//W3C//DTD SVG 20010904//EN"
 "http://www.w3.org/TR/2001/REC-SVG-20010904/DTD/svg10.dtd">
<svg version="1.0" xmlns="http://www.w3.org/2000/svg"
 width="116.000000pt" height="116.000000pt" viewBox="0 0 116.000000 116.000000"
 preserveAspectRatio="xMidYMid meet">
<metadata>
Created by potrace 1.15, written by Peter Selinger 2001-2017
</metadata>
<g transform="translate(0.000000,116.000000) scale(0.100000,-0.100000)"
fill="#000000" stroke="none">
<path d="M142 1148 c-5 -7 -39 -96 -76 -198 -51 -143 -66 -198 -66 -240 0 -65
23 -109 75 -142 l35 -23 0 -260 c0 -190 3 -264 12 -273 9 -9 127 -12 470 -12
l458 0 10 26 c6 14 10 138 10 278 l0 252 28 21 c16 12 36 37 45 56 30 63 22
116 -50 316 -36 102 -71 192 -76 199 -14 18 -860 18 -875 0z m869 -247 c32
-90 59 -175 59 -188 0 -35 -51 -83 -88 -83 -36 0 -82 40 -82 73 0 37 -22 59
-55 55 -25 -3 -31 -9 -42 -48 -15 -52 -45 -79 -87 -80 -36 0 -86 44 -86 75 0
35 -23 57 -55 53 -25 -3 -31 -9 -42 -48 -15 -52 -45 -79 -89 -80 -38 0 -84 39
-84 73 0 37 -22 59 -55 55 -25 -3 -31 -9 -42 -48 -15 -52 -45 -79 -89 -80 -38
0 -84 45 -84 82 0 21 55 187 111 336 l9 22 371 -2 371 -3 59 -164z m-668 -333
c46 -33 158 -33 205 0 l32 23 33 -23 c46 -33 158 -33 205 0 l32 23 26 -20 c14
-11 41 -23 60 -27 l34 -6 0 -224 0 -224 -385 0 -385 0 0 224 0 224 28 7 c15 3
38 14 52 25 31 24 26 24 63 -2z"/>
</g>
</svg>
