<?xml version="1.0" standalone="no"?>
<!DOCTYPE svg PUBLIC "-//W3C//DTD SVG 20010904//EN"
 "http://www.w3.org/TR/2001/REC-SVG-20010904/DTD/svg10.dtd">
<svg version="1.0" xmlns="http://www.w3.org/2000/svg"
 width="116.000000pt" height="116.000000pt" viewBox="0 0 116.000000 116.000000"
 preserveAspectRatio="xMidYMid meet">
<metadata>
Created by potrace 1.15, written by Peter Selinger 2001-2017
</metadata>
<g transform="translate(0.000000,116.000000) scale(0.100000,-0.100000)"
fill="#000000" stroke="none">
<path d="M540 1141 c-5 -11 -10 -51 -10 -90 0 -58 4 -75 20 -91 11 -11 25 -20
30 -20 6 0 19 9 30 20 16 16 20 33 20 91 0 86 -11 109 -50 109 -19 0 -33 -7
-40 -19z"/>
<path d="M170 990 c-11 -11 -20 -25 -20 -32 0 -15 123 -138 138 -138 15 0 52
37 52 52 0 15 -123 138 -138 138 -7 0 -21 -9 -32 -20z"/>
<path d="M883 947 c-34 -35 -63 -69 -63 -75 0 -15 37 -52 52 -52 15 0 138 123
138 138 0 7 -9 21 -20 32 -11 11 -25 20 -32 20 -6 0 -40 -28 -75 -63z"/>
<path d="M463 841 c-53 -25 -119 -91 -144 -144 -25 -57 -26 -177 0 -233 27
-59 75 -109 133 -138 74 -37 182 -37 256 0 101 50 152 135 152 254 0 90 -20
140 -80 200 -60 60 -110 80 -200 80 -52 0 -88 -6 -117 -19z m225 -103 c118
-79 105 -266 -23 -328 -61 -30 -137 -25 -193 13 -116 76 -105 263 20 326 59
30 140 25 196 -11z"/>
<path d="M17 619 c-24 -14 -23 -65 2 -79 11 -5 51 -10 90 -10 58 0 75 4 91 20
25 25 25 35 0 60 -16 16 -33 20 -92 20 -40 0 -81 -5 -91 -11z"/>
<path d="M960 610 c-11 -11 -20 -24 -20 -30 0 -5 9 -19 20 -30 16 -16 33 -20
91 -20 86 0 109 11 109 50 0 39 -23 50 -109 50 -58 0 -75 -4 -91 -20z"/>
<path d="M213 277 c-35 -35 -63 -69 -63 -75 0 -15 37 -52 52 -52 15 0 138 123
138 138 0 15 -37 52 -52 52 -6 0 -40 -28 -75 -63z"/>
<path d="M840 320 c-11 -11 -20 -25 -20 -32 0 -15 123 -138 138 -138 15 0 52
37 52 52 0 15 -123 138 -138 138 -7 0 -21 -9 -32 -20z"/>
<path d="M550 200 c-16 -16 -20 -33 -20 -91 0 -86 11 -109 50 -109 39 0 50 23
50 109 0 58 -4 75 -20 91 -11 11 -24 20 -30 20 -5 0 -19 -9 -30 -20z"/>
</g>
</svg>
