<?xml version="1.0" standalone="no"?>
<!DOCTYPE svg PUBLIC "-//W3C//DTD SVG 20010904//EN"
 "http://www.w3.org/TR/2001/REC-SVG-20010904/DTD/svg10.dtd">
<svg version="1.0" xmlns="http://www.w3.org/2000/svg"
 width="116.000000pt" height="62.000000pt" viewBox="0 0 116.000000 62.000000"
 preserveAspectRatio="xMidYMid meet">
<metadata>
Created by potrace 1.15, written by Peter Selinger 2001-2017
</metadata>
<g transform="translate(0.000000,62.000000) scale(0.100000,-0.100000)"
fill="#000000" stroke="none">
<path d="M190 603 c-63 -23 -151 -113 -173 -177 -22 -63 -22 -169 0 -232 23
-67 110 -154 177 -177 74 -25 698 -25 772 0 67 23 154 110 177 177 22 63 22
169 0 232 -23 67 -110 154 -177 177 -71 24 -707 24 -776 0z m761 -101 c79 -41
114 -102 114 -196 0 -64 -3 -76 -32 -118 -22 -31 -50 -54 -85 -72 l-52 -26
-316 0 -316 0 -52 26 c-35 18 -63 41 -85 72 -29 43 -32 54 -32 122 0 68 3 79
32 122 22 31 50 54 85 72 l52 26 317 0 317 0 53 -28z"/>
<path d="M259 481 c-79 -26 -122 -86 -122 -171 0 -69 26 -118 81 -152 51 -31
133 -31 184 0 110 68 112 235 4 302 -38 23 -109 33 -147 21z m112 -117 c71
-75 -42 -184 -117 -113 -32 30 -33 87 -1 116 40 37 81 36 118 -3z"/>
</g>
</svg>
