<?xml version="1.0" standalone="no"?>
<!DOCTYPE svg PUBLIC "-//W3C//DTD SVG 20010904//EN"
 "http://www.w3.org/TR/2001/REC-SVG-20010904/DTD/svg10.dtd">
<svg version="1.0" xmlns="http://www.w3.org/2000/svg"
 width="116.000000pt" height="116.000000pt" viewBox="0 0 116.000000 116.000000"
 preserveAspectRatio="xMidYMid meet">
<metadata>
Created by potrace 1.15, written by Peter Selinger 2001-2017
</metadata>
<g transform="translate(0.000000,116.000000) scale(0.100000,-0.100000)"
fill="#000000" stroke="none">
<path d="M257 1135 c-103 -12 -193 -27 -199 -33 -11 -11 -57 -370 -58 -452 l0
-45 303 -303 c235 -235 308 -302 327 -302 36 0 530 494 530 530 0 20 -67 92
-303 328 l-302 302 -55 -1 c-30 -1 -140 -11 -243 -24z m450 -257 c106 -106
193 -197 193 -203 0 -6 -93 -104 -208 -218 l-207 -207 -197 197 -197 198 22
191 21 190 176 21 c96 11 182 21 190 22 8 0 101 -86 207 -191z m303 -313 l34
-35 -209 -210 -209 -210 -38 37 -38 37 207 208 c114 114 210 208 213 208 4 0
21 -16 40 -35z"/>
<path d="M280 927 c-48 -31 -72 -78 -72 -137 0 -93 64 -160 154 -160 98 0 158
53 166 145 9 104 -56 175 -159 175 -42 0 -65 -6 -89 -23z m135 -92 c14 -13 25
-33 25 -45 0 -26 -43 -70 -68 -70 -31 0 -72 38 -72 68 0 33 36 72 67 72 13 0
35 -11 48 -25z"/>
</g>
</svg>
