<?xml version="1.0" standalone="no"?>
<!DOCTYPE svg PUBLIC "-//W3C//DTD SVG 20010904//EN"
 "http://www.w3.org/TR/2001/REC-SVG-20010904/DTD/svg10.dtd">
<svg version="1.0" xmlns="http://www.w3.org/2000/svg"
 width="116.000000pt" height="116.000000pt" viewBox="0 0 116.000000 116.000000"
 preserveAspectRatio="xMidYMid meet">
<metadata>
Created by potrace 1.15, written by Peter Selinger 2001-2017
</metadata>
<g transform="translate(0.000000,116.000000) scale(0.100000,-0.100000)"
fill="#000000" stroke="none">
<path d="M540 1141 c-5 -11 -10 -40 -10 -64 l0 -45 -43 -6 c-73 -11 -164 -61
-228 -125 -64 -64 -114 -155 -125 -228 l-6 -43 -45 0 c-60 0 -83 -14 -83 -50
0 -36 23 -50 83 -50 l45 0 6 -43 c11 -73 61 -164 125 -228 64 -64 155 -114
228 -125 l43 -6 0 -45 c0 -60 14 -83 50 -83 36 0 50 23 50 83 l0 45 43 6 c159
24 329 194 353 353 l6 43 45 0 c60 0 83 14 83 50 0 36 -23 50 -83 50 l-45 0
-6 43 c-24 159 -194 329 -353 353 l-43 6 0 45 c0 60 -14 83 -50 83 -19 0 -33
-7 -40 -19z m-10 -282 c0 -96 10 -119 50 -119 40 0 50 23 50 120 l0 82 28 -6
c55 -13 133 -58 176 -102 44 -43 89 -121 102 -176 l6 -28 -82 0 c-97 0 -120
-10 -120 -50 0 -40 23 -50 120 -50 l82 0 -6 -27 c-13 -56 -58 -134 -102 -177
-43 -44 -121 -89 -176 -102 l-28 -6 0 82 c0 97 -10 120 -50 120 -40 0 -50 -23
-50 -120 l0 -82 -27 6 c-56 13 -134 58 -177 102 -44 43 -89 121 -102 177 l-6
27 82 0 c97 0 120 10 120 50 0 40 -23 50 -119 50 -45 0 -81 4 -81 9 0 24 35
102 65 147 40 57 105 108 174 135 72 28 71 29 71 -62z"/>
</g>
</svg>
