<?xml version="1.0" standalone="no"?>
<!DOCTYPE svg PUBLIC "-//W3C//DTD SVG 20010904//EN"
 "http://www.w3.org/TR/2001/REC-SVG-20010904/DTD/svg10.dtd">
<svg version="1.0" xmlns="http://www.w3.org/2000/svg"
 width="104.000000pt" height="116.000000pt" viewBox="0 0 104.000000 116.000000"
 preserveAspectRatio="xMidYMid meet">
<metadata>
Created by potrace 1.15, written by Peter Selinger 2001-2017
</metadata>
<g transform="translate(0.000000,116.000000) scale(0.100000,-0.100000)"
fill="#000000" stroke="none">
<path d="M347 1153 c-4 -3 -7 -19 -7 -34 0 -36 24 -49 89 -49 28 0 51 -4 51
-9 0 -5 -31 -16 -70 -25 -185 -41 -336 -179 -390 -354 -25 -81 -27 -225 -4
-303 55 -184 190 -318 369 -365 64 -18 206 -18 270 0 233 62 385 264 385 510
0 133 -29 220 -105 321 -33 43 -35 49 -21 63 12 12 18 13 30 3 8 -7 27 -11 43
-9 23 2 29 9 31 32 3 24 -6 39 -54 87 -58 59 -88 71 -112 47 -15 -15 -15 -51
0 -66 9 -9 7 -16 -7 -32 -17 -19 -18 -19 -44 -2 -34 24 -117 58 -161 67 -56
11 -70 16 -70 26 0 5 22 9 49 9 52 0 81 17 81 49 0 37 -19 41 -185 41 -89 0
-165 -3 -168 -7z m266 -208 c135 -35 239 -119 297 -240 29 -60 35 -83 38 -161
4 -76 0 -104 -18 -158 -38 -114 -125 -210 -240 -265 -49 -23 -67 -26 -170 -26
-103 0 -121 3 -170 26 -115 55 -202 151 -240 265 -18 54 -22 82 -18 159 3 80
8 101 38 161 91 186 297 288 483 239z"/>
<path d="M486 808 c-13 -18 -16 -51 -16 -155 0 -173 0 -173 139 -173 104 0
131 10 131 48 0 37 -18 46 -94 50 l-76 4 0 102 c0 109 -13 146 -50 146 -10 0
-26 -10 -34 -22z"/>
</g>
</svg>
