<?xml version="1.0" standalone="no"?>
<!DOCTYPE svg PUBLIC "-//W3C//DTD SVG 20010904//EN"
 "http://www.w3.org/TR/2001/REC-SVG-20010904/DTD/svg10.dtd">
<svg version="1.0" xmlns="http://www.w3.org/2000/svg"
 width="116.000000pt" height="116.000000pt" viewBox="0 0 116.000000 116.000000"
 preserveAspectRatio="xMidYMid meet">
<metadata>
Created by potrace 1.15, written by Peter Selinger 2001-2017
</metadata>
<g transform="translate(0.000000,116.000000) scale(0.100000,-0.100000)"
fill="#000000" stroke="none">
<path d="M277 882 c-226 -226 -277 -282 -277 -304 0 -25 23 -48 46 -48 5 0
115 107 246 237 l238 237 0 -482 c0 -314 4 -490 10 -503 14 -26 66 -26 80 0 6
13 10 189 10 503 l0 482 238 -237 c131 -130 241 -237 246 -237 23 0 46 23 46
48 0 22 -50 77 -278 305 -215 215 -283 277 -302 277 -20 0 -87 -62 -303 -278z"/>
</g>
</svg>
