<?xml version="1.0" standalone="no"?>
<!DOCTYPE svg PUBLIC "-//W3C//DTD SVG 20010904//EN"
 "http://www.w3.org/TR/2001/REC-SVG-20010904/DTD/svg10.dtd">
<svg version="1.0" xmlns="http://www.w3.org/2000/svg"
 width="116.000000pt" height="116.000000pt" viewBox="0 0 116.000000 116.000000"
 preserveAspectRatio="xMidYMid meet">
<metadata>
Created by potrace 1.15, written by Peter Selinger 2001-2017
</metadata>
<g transform="translate(0.000000,116.000000) scale(0.100000,-0.100000)"
fill="#000000" stroke="none">
<path d="M613 1142 c-103 -37 -185 -112 -234 -216 -16 -33 -29 -67 -29 -74 0
-9 -8 -10 -27 -5 -77 21 -173 0 -230 -50 -62 -54 -86 -103 -91 -185 -6 -87 12
-143 64 -196 45 -46 83 -66 144 -73 56 -6 80 6 80 42 0 29 -16 41 -65 48 -109
17 -167 135 -115 236 46 92 151 122 235 67 29 -19 59 -21 73 -3 5 6 13 34 17
62 15 106 89 204 188 251 77 36 181 34 262 -4 65 -31 121 -86 157 -154 20 -37
23 -58 23 -143 0 -85 -3 -106 -23 -143 -50 -94 -142 -158 -245 -171 -58 -7
-81 -31 -66 -70 9 -23 13 -23 79 -19 134 10 258 98 318 226 25 52 27 68 27
177 0 109 -2 125 -27 178 -37 80 -117 160 -197 199 -58 29 -76 33 -165 36 -79
2 -113 -2 -153 -16z"/>
<path d="M363 348 c-146 -145 -164 -173 -131 -206 25 -25 53 -10 149 85 l99
97 0 -150 c0 -103 4 -154 12 -162 17 -17 65 -15 72 4 3 9 6 84 6 167 l0 152
105 -105 c99 -98 105 -103 130 -92 18 8 25 19 25 39 0 23 -27 56 -143 171 -83
83 -150 142 -161 142 -12 0 -79 -59 -163 -142z"/>
</g>
</svg>
