<?xml version="1.0" standalone="no"?>
<!DOCTYPE svg PUBLIC "-//W3C//DTD SVG 20010904//EN"
 "http://www.w3.org/TR/2001/REC-SVG-20010904/DTD/svg10.dtd">
<svg version="1.0" xmlns="http://www.w3.org/2000/svg"
 width="116.000000pt" height="116.000000pt" viewBox="0 0 116.000000 116.000000"
 preserveAspectRatio="xMidYMid meet">
<metadata>
Created by potrace 1.15, written by Peter Selinger 2001-2017
</metadata>
<g transform="translate(0.000000,116.000000) scale(0.100000,-0.100000)"
fill="#000000" stroke="none">
<path d="M5 1148 c-3 -7 -4 -267 -3 -578 l3 -565 575 0 575 0 0 575 0 575
-573 3 c-453 2 -574 0 -577 -10z m205 -163 l0 -85 -60 0 -60 0 0 85 0 85 60 0
60 0 0 -85z m650 -135 l0 -220 -280 0 -280 0 0 220 0 220 280 0 280 0 0 -220z
m210 135 l0 -85 -60 0 -60 0 0 85 0 85 60 0 60 0 0 -85z m-860 -270 l0 -85
-60 0 -60 0 0 85 0 85 60 0 60 0 0 -85z m860 0 l0 -85 -60 0 -60 0 0 85 0 85
60 0 60 0 0 -85z m-860 -270 l0 -85 -60 0 -60 0 0 85 0 85 60 0 60 0 0 -85z
m650 -135 l0 -220 -280 0 -280 0 0 220 0 220 280 0 280 0 0 -220z m220 135 l0
-85 -65 0 -65 0 0 85 0 85 65 0 65 0 0 -85z m-870 -270 l0 -85 -60 0 -60 0 0
85 0 85 60 0 60 0 0 -85z m860 0 l0 -85 -60 0 -60 0 0 85 0 85 60 0 60 0 0
-85z"/>
</g>
</svg>
