<?xml version="1.0" standalone="no"?>
<!DOCTYPE svg PUBLIC "-//W3C//DTD SVG 20010904//EN"
 "http://www.w3.org/TR/2001/REC-SVG-20010904/DTD/svg10.dtd">
<svg version="1.0" xmlns="http://www.w3.org/2000/svg"
 width="116.000000pt" height="76.000000pt" viewBox="0 0 116.000000 76.000000"
 preserveAspectRatio="xMidYMid meet">
<metadata>
Created by potrace 1.15, written by Peter Selinger 2001-2017
</metadata>
<g transform="translate(0.000000,76.000000) scale(0.100000,-0.100000)"
fill="#000000" stroke="none">
<path d="M5 747 c-3 -6 -4 -176 -3 -377 l3 -365 460 -3 c424 -2 461 -1 473 15
7 10 12 51 12 107 l0 89 74 -71 c41 -40 82 -72 93 -72 41 0 43 12 43 316 0
257 -2 293 -16 298 -34 13 -51 4 -121 -66 l-73 -72 0 87 c0 141 53 127 -481
127 -359 0 -461 -3 -464 -13z m845 -367 l0 -290 -380 0 -380 0 0 290 0 290
380 0 380 0 0 -290z m220 -2 l0 -142 -60 59 c-77 77 -78 92 -3 167 32 32 59
58 60 58 2 0 3 -64 3 -142z"/>
</g>
</svg>
