<?xml version="1.0" standalone="no"?>
<!DOCTYPE svg PUBLIC "-//W3C//DTD SVG 20010904//EN"
 "http://www.w3.org/TR/2001/REC-SVG-20010904/DTD/svg10.dtd">
<svg version="1.0" xmlns="http://www.w3.org/2000/svg"
 width="80.000000pt" height="116.000000pt" viewBox="0 0 80.000000 116.000000"
 preserveAspectRatio="xMidYMid meet">
<metadata>
Created by potrace 1.15, written by Peter Selinger 2001-2017
</metadata>
<g transform="translate(0.000000,116.000000) scale(0.100000,-0.100000)"
fill="#000000" stroke="none">
<path d="M272 1134 c-59 -29 -107 -79 -134 -142 -18 -39 -19 -63 -16 -240 3
-194 3 -198 30 -243 55 -93 139 -141 248 -141 109 0 193 48 248 141 27 45 27
49 30 243 3 177 2 201 -16 240 -27 63 -75 113 -134 142 -74 37 -182 37 -256 0z
m236 -96 c68 -46 82 -89 82 -262 0 -127 -3 -152 -20 -186 -70 -137 -272 -135
-339 2 -18 39 -21 62 -21 186 0 156 7 187 56 236 43 43 81 57 146 53 40 -2 67
-11 96 -29z"/>
<path d="M3 674 c-12 -32 5 -143 30 -198 48 -103 171 -201 280 -221 l37 -7 0
-79 0 -79 -107 0 c-130 0 -151 -5 -159 -36 -13 -53 -6 -54 311 -54 315 0 305
-2 305 50 0 31 -33 40 -144 40 l-106 0 0 79 0 79 38 7 c109 20 231 118 279
222 21 46 27 74 28 133 l0 75 -30 3 c-35 4 -55 -18 -55 -63 0 -102 -106 -238
-210 -269 -68 -20 -132 -20 -200 0 -103 30 -210 167 -210 266 0 46 -17 68 -51
68 -18 0 -32 -6 -36 -16z"/>
</g>
</svg>
