<?xml version="1.0" standalone="no"?>
<!DOCTYPE svg PUBLIC "-//W3C//DTD SVG 20010904//EN"
 "http://www.w3.org/TR/2001/REC-SVG-20010904/DTD/svg10.dtd">
<svg version="1.0" xmlns="http://www.w3.org/2000/svg"
 width="116.000000pt" height="116.000000pt" viewBox="0 0 116.000000 116.000000"
 preserveAspectRatio="xMidYMid meet">
<metadata>
Created by potrace 1.15, written by Peter Selinger 2001-2017
</metadata>
<g transform="translate(0.000000,116.000000) scale(0.100000,-0.100000)"
fill="#000000" stroke="none">
<path d="M594 1006 l-230 -154 -21 24 c-21 23 -27 24 -157 24 -74 0 -146 -4
-160 -10 l-26 -10 0 -299 c0 -287 1 -301 19 -311 11 -5 83 -10 161 -10 136 0
142 1 163 24 l21 24 230 -154 c246 -164 277 -178 296 -128 14 36 13 1089 0
1115 -22 40 -58 24 -296 -135z m206 -426 l0 -450 -220 147 -220 146 0 157 0
157 218 146 c119 80 218 146 220 146 1 1 2 -202 2 -449z m-540 0 l0 -220 -85
0 -85 0 0 220 0 220 85 0 85 0 0 -220z"/>
<path d="M1090 880 c-19 -19 -20 -34 -20 -300 0 -267 1 -281 20 -300 23 -23
30 -24 53 -7 16 11 17 39 15 311 l-3 299 -23 8 c-17 6 -27 4 -42 -11z"/>
</g>
</svg>
