<?xml version="1.0" standalone="no"?>
<!DOCTYPE svg PUBLIC "-//W3C//DTD SVG 20010904//EN"
 "http://www.w3.org/TR/2001/REC-SVG-20010904/DTD/svg10.dtd">
<svg version="1.0" xmlns="http://www.w3.org/2000/svg"
 width="90.000000pt" height="116.000000pt" viewBox="0 0 90.000000 116.000000"
 preserveAspectRatio="xMidYMid meet">
<metadata>
Created by potrace 1.15, written by Peter Selinger 2001-2017
</metadata>
<g transform="translate(0.000000,116.000000) scale(0.100000,-0.100000)"
fill="#000000" stroke="none">
<path d="M77 1153 c-4 -3 -7 -76 -7 -161 0 -154 0 -154 -33 -221 -31 -64 -32
-70 -32 -191 1 -118 2 -128 30 -185 29 -57 30 -67 35 -225 l5 -165 375 0 375
0 5 165 c5 158 6 168 35 225 28 57 29 66 29 185 0 119 -1 128 -29 185 -29 57
-30 67 -35 225 l-5 165 -371 3 c-204 1 -373 -1 -377 -5z m663 -148 c0 -36 -2
-65 -5 -65 -2 0 -26 14 -52 30 -133 85 -342 83 -475 -5 -20 -14 -40 -25 -43
-25 -3 0 -5 29 -5 65 l0 65 290 0 290 0 0 -65z m-138 -97 c72 -34 137 -98 174
-174 26 -53 29 -69 29 -154 0 -85 -3 -101 -29 -154 -37 -76 -101 -140 -174
-174 -49 -23 -70 -27 -152 -27 -82 0 -103 4 -152 27 -198 93 -268 341 -149
525 43 67 92 107 170 140 79 33 201 29 283 -9z m-385 -718 c133 -85 342 -83
475 5 20 14 40 25 43 25 3 0 5 -29 5 -65 l0 -65 -290 0 -290 0 0 65 c0 36 2
65 5 65 2 0 26 -14 52 -30z"/>
<path d="M416 818 c-12 -17 -16 -49 -16 -135 0 -145 6 -153 114 -153 99 0 126
11 126 50 0 36 -27 50 -96 50 l-44 0 0 83 c0 89 -15 127 -50 127 -10 0 -26
-10 -34 -22z"/>
</g>
</svg>
