<?xml version="1.0" standalone="no"?>
<!DOCTYPE svg PUBLIC "-//W3C//DTD SVG 20010904//EN"
 "http://www.w3.org/TR/2001/REC-SVG-20010904/DTD/svg10.dtd">
<svg version="1.0" xmlns="http://www.w3.org/2000/svg"
 width="102.000000pt" height="116.000000pt" viewBox="0 0 102.000000 116.000000"
 preserveAspectRatio="xMidYMid meet">
<metadata>
Created by potrace 1.15, written by Peter Selinger 2001-2017
</metadata>
<g transform="translate(0.000000,116.000000) scale(0.100000,-0.100000)"
fill="#000000" stroke="none">
<path d="M311 1145 c-90 -20 -155 -42 -239 -81 -69 -33 -72 -36 -72 -69 0 -51
33 -56 118 -17 259 117 525 120 771 6 40 -19 81 -34 90 -34 25 0 41 20 41 52
0 24 -8 32 -57 56 -78 39 -172 71 -261 88 -93 18 -306 17 -391 -1z"/>
<path d="M355 863 c-83 -17 -213 -75 -221 -98 -10 -26 13 -65 37 -65 12 0 46
11 75 25 162 77 364 77 533 0 60 -28 81 -31 99 -13 21 21 14 56 -15 76 -113
78 -340 111 -508 75z"/>
<path d="M450 589 c-67 -9 -138 -34 -162 -56 -22 -20 -23 -56 -3 -73 17 -14
34 -11 115 19 74 27 149 26 235 -4 79 -28 102 -25 111 12 17 66 -146 122 -296
102z"/>
<path d="M430 288 c-55 -38 -74 -72 -74 -131 0 -98 59 -157 157 -157 122 0
191 113 137 225 -38 79 -149 111 -220 63z"/>
</g>
</svg>
