<?xml version="1.0" standalone="no"?>
<!DOCTYPE svg PUBLIC "-//W3C//DTD SVG 20010904//EN"
 "http://www.w3.org/TR/2001/REC-SVG-20010904/DTD/svg10.dtd">
<svg version="1.0" xmlns="http://www.w3.org/2000/svg"
 width="116.000000pt" height="116.000000pt" viewBox="0 0 116.000000 116.000000"
 preserveAspectRatio="xMidYMid meet">
<metadata>
Created by potrace 1.15, written by Peter Selinger 2001-2017
</metadata>
<g transform="translate(0.000000,116.000000) scale(0.100000,-0.100000)"
fill="#000000" stroke="none">
<path d="M301 1141 c-120 -45 -207 -124 -264 -240 -31 -64 -32 -71 -32 -191 0
-119 1 -128 31 -190 66 -139 192 -234 345 -260 99 -17 181 -3 284 50 l80 40
176 -176 c157 -157 179 -175 205 -172 24 2 30 8 32 32 3 26 -15 48 -172 205
l-176 176 40 80 c52 103 67 182 51 279 -25 154 -119 280 -256 346 -65 32 -79
35 -180 37 -90 3 -120 0 -164 -16z m301 -103 c277 -129 278 -528 1 -658 -239
-112 -514 66 -513 333 1 152 84 273 229 334 79 33 201 29 283 -9z"/>
<path d="M146 734 c-11 -29 -6 -53 13 -64 12 -6 124 -10 293 -10 301 0 312 2
306 55 l-3 30 -301 3 c-269 2 -302 1 -308 -14z"/>
</g>
</svg>
